<?xml version="1.0" encoding="utf-8"?>
<!-- Generator: Adobe Illustrator 17.1.0, SVG Export Plug-In . SVG Version: 6.00 Build 0)  -->
<!DOCTYPE svg PUBLIC "-//W3C//DTD SVG 1.1//EN" "http://www.w3.org/Graphics/SVG/1.1/DTD/svg11.dtd">
<svg version="1.1" id="Capa_1" xmlns="http://www.w3.org/2000/svg" xmlns:xlink="http://www.w3.org/1999/xlink" x="0px" y="0px"
	 viewBox="0 0 1400 1700.8" enable-background="new 0 0 1400 1700.8" xml:space="preserve">
<path fill="#C20B19" d="M1333.3,1173.6c4.2-7.8,6.3-16,5.8-23l0.1-109.4c0-0.5-0.1-0.9-0.2-1.3c0.3-2.7,0.3-5.2-0.1-7.5
	c-0.8-6-5-19.9-26.6-21.1c-34.1-2-40.9-22.1-41-22.3c-0.3-1.1-1.1-2.1-2.1-2.6c-1-0.5-2.2-0.7-3.4-0.3l-3.2,1
	c-1.1,0.4-2,1.2-2.6,2.2c-0.5,1.1-0.6,2.3-0.2,3.4c0.2,0.7,0.7,1.8,1.3,3.1v96.7c-33.8,20.7-74.8,51.1-89.4,73.1
	c-7.4,11.2-11.5,29.9-8.6,47.8l0.7,89l0.3,9.8c-1.1,15.1,0.5,27.1,4.8,35.7c10.2,20.1,41.6,44.2,55,54.5c0,0,0.2,0.2,0.2,0.2
	c1.1,0.8,2,1.5,2.8,2.1l0.6,0.4c29.9,22.9,58,53.3,55.5,64.8c-55.7,30.4-115.5,46.3-175.2,46.3c-18.3,0-36.2-1.5-53.7-4.5V1447
	c0-9.5-7.3-18.3-16.7-20.1c-64.5-11.9-130.7-20.4-196.9-25.4c-0.8-0.1-1.7,0.1-2.4,0.5c-1.1,0.6-2.4,0.9-3.8,0.9v1.5
	c-0.1,0-0.2,0-0.2,0l-0.1-1.5c-1.7,0-3.3,1-4,2.6c-0.1,0.3-0.3,0.5-0.5,0.8c-0.8,1.3-0.9,2.9-0.2,4.3c0.7,1.4,2,2.3,3.6,2.4
	c68.3,4.9,136.4,13.6,202.4,25.7c3.4,0.6,6.3,3.8,6.8,7.3c-0.4,0.7-1.4,2-3.6,3.5c-4.3,2.9-15.5,7.9-41.4,7.9
	c-22.5,0-51.5-3.7-86.2-10.9c-2.9-2.1-5.9-3.2-8.7-3.2c-5,0-10.1,3.7-10.1,12v84.4c-63.9-6.6-128.1-10-192.2-10
	c-64.1,0-128.3,3.3-192.2,10v-84.4c0-8.3-5.1-12-10.2-12c-2.8,0-5.7,1.1-8.7,3.2c-34.7,7.2-63.6,10.9-86.1,10.9
	c-36,0-43.8-9.3-45.1-11.3c0.5-3.5,3.4-6.7,6.8-7.3c66.7-12.3,135.5-21,204.3-25.9c1.8-0.1,3.3-1.3,3.8-3c0.5-1.7,0-3.5-1.4-4.7
	c-0.7-0.6-1.4-1.3-1.8-2.1c-0.8-1.4-2.4-2.2-4-2.1c-68.3,4.9-136.7,13.7-203.1,25.9c-9.4,1.7-16.7,10.5-16.7,20.1v64.8
	c-17.5,3-35.5,4.5-53.8,4.5c-59.8,0-119.5-15.9-175.2-46.3c-2.5-11.5,25.6-41.9,55.4-64.8c0.5-0.4,1-0.8,1.6-1.2
	c0.6-0.4,1.2-0.9,1.9-1.4c13.5-10.3,45-34.3,55.2-54.6c4.3-8.6,5.9-20.6,4.8-35.7l0.3-9.9l0.7-89c2.8-17.8-1.2-36.5-8.6-47.6
	c-14.6-22-55.6-52.5-89.4-73.2v-96.7c0.9-1.9,1.3-3.1,1.4-3.3c0.7-2.3-0.6-4.7-2.8-5.4l-3.2-1c-2.3-0.7-4.7,0.5-5.5,2.8
	c-0.3,0.8-7,20.4-41,22.4c-21.6,1.2-25.8,15.1-26.7,21c-0.3,2.3-0.4,4.8-0.1,7.5c-0.1,0.4-0.2,0.9-0.2,1.3l0.1,109.4
	c-0.4,7,1.7,15.2,5.9,23c6.3,11.8,16.7,21.4,27.1,25c15.3,5.3,64.6,37,96.8,60.7c-8.4,7.2-16.5,13.5-22.2,17.7l-3.5,2.7
	c-10.1,7.8-56.3,45.3-56.6,45.5c-0.1,0.1-0.2,0.2-0.3,0.3c-2,2-48.9,49.4-42.2,124.7c0,0.3,0.1,0.7,0.2,1c0.1,3.5,0.6,9.4,1.5,19.7
	c2.3,26.9,7.7,89.8,7.7,99.9c0,8.5,5.5,19.7,12.6,25.3c57.5,46.6,125.7,71.3,197.3,71.3c75.2,0,147.8-26.7,210-77.1
	c7-5.7,12.6-16.8,12.6-25.3v-13.2c63.9-6.7,128.2-10,192.2-10c64,0,128.3,3.4,192.2,10v13.2c0,8.4,5.5,19.6,12.5,25.3
	c62.2,50.4,134.8,77.1,210,77.1h0.1c71.6,0,139.9-24.6,197.3-71.3c7.1-5.7,12.6-16.8,12.6-25.3c0-9.8,4.9-67.7,7.6-98.8l0.1-1.1
	c0.9-10.5,1.4-16.4,1.6-19.9c0.1-0.3,0.1-0.6,0.2-0.9c6.5-72.5-37-119.5-42-124.5c-0.1-0.2-0.3-0.3-0.5-0.5l-1.6-1.3
	c-30.2-24.4-49.2-39.7-55-44.2c-0.9-0.7-2-1.6-3.4-2.7c-5.7-4.3-13.8-10.5-22.2-17.7c32.3-23.7,81.6-55.4,96.8-60.7
	C1316.6,1194.9,1326.9,1185.4,1333.3,1173.6z M357.7,1461.3c10,5.4,25,8.2,44.8,8.2c17.7,0,39.2-2.2,64.3-6.5
	c-33.2,22.6-70,38.3-109.2,46.6V1461.3z M77.6,1445.7c-4.4-64.6,33.8-106.5,38.7-111.6c3.1-2.5,46.4-37.6,56.1-45.1
	c0.5-0.4,1.2-0.9,1.9-1.5l1.4-1.1c11.3-8.6,35.4-27,48.8-44.7l-0.4,60.3l-0.3,10.2c0,0.2,0,0.3,0,0.5c1,13.1-0.2,23.1-3.6,29.8
	c-8.9,17.8-38.9,40.7-51.7,50.5l-0.9,0.7c-1,0.8-1.9,1.4-2.5,1.9c-6.3,4.8-53.4,41.2-59.5,67.9C96,1458.1,86.7,1452.1,77.6,1445.7z
	 M97.7,1071.2c-13.6-4.8-26.6-24.3-24.8-37.2c0.3-2.5,1.4-9.9,15.5-10.8c18.4-1,30.5-6.7,38.3-12.9v75.1
	C114.9,1078.7,104.6,1073.6,97.7,1071.2z M72.7,1066.7c5.9,7.4,13.4,13.1,21,15.8c7.8,2.7,20.1,9,34,17.3c0.6,0.7,1.4,1.1,2.3,1.4
	c33,19.9,74.3,50.3,88.1,71.1c8,12.1,11.1,36.3,2,54.2c-3.3,6.6-10.2,14.9-20.5,24.6c-32.7-24.3-85.2-58-102-63.9
	c-7.7-2.7-15.5-10.1-20.5-19.4c-3.2-5.9-4.8-11.8-4.5-16.8c0-0.1,0-0.2,0-0.3L72.7,1066.7z M495.8,1565c0,5-3.9,12.6-8.1,16
	c-60.1,48.7-130.1,74.5-202.5,74.5c-68.8,0-134.5-23.7-189.8-68.6c-4.3-3.5-8.1-11.1-8.1-16.1c0-10.6-5.2-71.6-7.7-100.9l-0.5-5.6
	c-0.1-1.1-0.2-2.2-0.3-3.2c9.5,6.3,19.1,12.2,28.9,17.6c0.6,0.6,1.3,1,2.2,1.2c0,0,0.1,0,0.1,0c57.7,31.7,119.9,48.3,182,48.3
	c75.3,0,145.6-24.7,203.3-71.5c0.2-0.2,0.4-0.3,0.6-0.4V1565z M1273.3,1010.4c7.8,6.2,19.9,11.8,38.3,12.9
	c14.1,0.8,15.1,8.3,15.5,10.8c1.8,13-11.1,32.4-24.8,37.2c-6.9,2.4-17.2,7.5-29,14.2V1010.4z M997.4,1469.5
	c19.8,0,34.8-2.8,44.8-8.2v48.3c-39.2-8.2-76-23.9-109.2-46.6C958.1,1467.3,979.7,1469.5,997.4,1469.5z M1320.4,1469.8l-0.5,6.3
	c-2.8,33.8-7.2,84.9-7.2,94.6c0,5-3.9,12.6-8.2,16.1c-55.3,44.9-120.9,68.6-189.8,68.6c-72.4,0-142.4-25.7-202.5-74.5
	c-4.2-3.4-8.1-11.1-8.1-16v-108.6c0.2,0.1,0.3,0.3,0.5,0.4c57.8,46.8,128.1,71.5,203.3,71.5c62.1,0,124.3-16.6,182-48.3
	c0,0,0.1,0,0.1,0c0.8-0.2,1.6-0.6,2.2-1.3c9.8-5.4,19.4-11.3,28.9-17.6C1320.9,1463.7,1320.7,1466.7,1320.4,1469.8z M1224,1286.4
	l1,0.7c1,0.7,1.8,1.4,2.7,2.1c9.6,7.4,52.7,42.3,56,45c4.7,5,43,47.2,38.7,111.6c-9.1,6.4-18.4,12.3-27.8,17.8
	c-5.8-25.7-49.3-60.1-59.6-67.9l-1.1-0.8c-0.7-0.5-1.5-1.1-2.4-1.8l-0.2-0.2c-12.8-9.8-42.7-32.7-51.6-50.4
	c-3.3-6.7-4.6-16.7-3.6-29.8c0-0.1,0-0.3,0-0.4l-0.3-10.1l-0.4-60.4C1188.9,1259.5,1212.8,1277.8,1224,1286.4z M1200.3,1251.1
	c-10.2-9.7-17.1-17.9-20.5-24.6c-9-18-6-42.2,2.1-54.2c13.8-20.8,55-51.2,88-71.1c0.9-0.2,1.7-0.7,2.3-1.4
	c14-8.3,26.2-14.6,34.1-17.3c7.6-2.7,15.1-8.4,21-15.8l-0.1,84.1c0,0.1,0,0.2,0,0.3c0.3,5-1.3,10.9-4.5,16.8
	c-5,9.2-12.8,16.7-20.5,19.4C1285.5,1193.1,1233,1226.8,1200.3,1251.1z"/>
<path fill="#C20B19" d="M136,1549.6c0-13.7,0-20.5,0-34.1c3.2,1.6,4.8,2.4,8,3.9c0,5.4,0,8.1,0,13.4c6.3,2.9,9.5,4.3,15.9,6.9
	c0-5.4,0-8.1,0-13.4c3.3,1.3,4.9,2,8.2,3.2c0,13.7,0,20.5,0,34.1c-3.3-1.2-4.9-1.9-8.2-3.2c0-6,0-9,0-14.9c-6.4-2.6-9.6-4-15.9-6.9
	c0,6,0,9,0,14.9C140.8,1552,139.2,1551.2,136,1549.6z"/>
<path fill="#C20B19" d="M219.7,1578.5c-3.7-0.8-5.6-1.2-9.3-2c-1.5-3.4-2.2-5.2-3.7-8.6c-6.7-1.7-10.1-2.6-16.7-4.6
	c-1.4,2.7-2.1,4-3.4,6.7c-3.6-1.1-5.3-1.7-8.9-2.9c6.4-11.5,9.7-17.3,16.2-29.1c3.6,1,5.3,1.5,8.9,2.4
	C209.6,1555.9,212.9,1563.5,219.7,1578.5z M204,1561.4c-2.3-5.7-3.5-8.5-5.8-14.2c-2.3,4.4-3.4,6.7-5.6,11.1
	C197.2,1559.6,199.5,1560.3,204,1561.4z"/>
<path fill="#C20B19" d="M257,1571.5c3.4,1.2,5,1.7,8.4,2.8c-1.3,3.6-3.4,6.3-6.4,7.8c-3,1.6-6.8,2.1-11.4,1.5
	c-5.7-0.7-10.3-2.9-14-6.6c-3.6-3.7-5.5-8.3-5.5-13.6c0-5.7,1.8-9.7,5.5-12.3c3.7-2.5,8.5-3.4,14.5-2.7c5.2,0.6,9.5,2.3,12.8,5
	c1.9,1.6,3.4,3.8,4.4,6.6c-3.4,0.4-5.1,0.6-8.6,0.9c-0.5-1.8-1.6-3.3-3.2-4.5c-1.6-1.2-3.6-1.9-5.8-2.2c-3.2-0.4-5.7,0.2-7.7,1.7
	c-2,1.5-2.9,4.3-2.9,8.4c0,4.3,1,7.5,2.9,9.6c1.9,2.1,4.5,3.4,7.6,3.8c2.3,0.3,4.3-0.1,5.9-1.1
	C255.1,1575.7,256.2,1573.9,257,1571.5z"/>
<path fill="#C20B19" d="M278,1585.4c0-13.7,0-20.5,0-34.1c3.5,0.1,5.2,0.1,8.7,0.2c0,13.7,0,20.5,0,34.1
	C283.2,1585.5,281.5,1585.5,278,1585.4z"/>
<path fill="#C20B19" d="M339.1,1581.8c-3.7,0.6-5.6,0.8-9.4,1.3c-1.5-2.9-2.2-4.4-3.7-7.3c-6.8,0.7-10.3,1-17.1,1.4
	c-1.4,3.2-2.1,4.8-3.5,7.9c-3.7,0.2-5.5,0.3-9.2,0.3c6.7-13.8,10-20.8,16.7-34.9c3.7-0.3,5.5-0.4,9.2-0.8
	C328.8,1562.7,332.2,1569.2,339.1,1581.8z M323.2,1570.3c-2.4-4.8-3.5-7.3-5.9-12.1c-2.3,5.3-3.5,7.9-5.8,13.1
	C316.2,1570.9,318.5,1570.7,323.2,1570.3z"/>
<path fill="#C20B19" d="M368.9,1576c0-13.5,0-20.3,0-33.9c3.4-0.8,5.1-1.3,8.5-2.2c0,11.2,0,16.9,0,28.1c8.4-2.3,12.6-3.5,20.9-6.3
	c0,2.3,0,3.5,0,5.8C386.6,1571.4,380.7,1573.1,368.9,1576z"/>
<path fill="#C20B19" d="M445.5,1547.4c-3.4,1.8-5.2,2.6-8.7,4.3c-1.4-2.4-2.1-3.7-3.5-6.1c-6.4,3-9.6,4.4-16.1,7
	c-1.3,3.6-2,5.5-3.4,9.1c-3.5,1.4-5.2,2-8.8,3.3c6.4-16,9.6-24,15.9-40.4c3.5-1.4,5.2-2.2,8.6-3.8
	C436.1,1531.7,439.2,1537,445.5,1547.4z M430.8,1541.1c-2.2-4.1-3.3-6.1-5.5-10.2c-2.2,6-3.3,9-5.5,15
	C424.2,1544,426.4,1543.1,430.8,1541.1z"/>
<path fill="#C20B19" d="M128.5,1595.5c0-13.5,0-20.3,0-33.8c3.2,1.7,4.8,2.5,7.9,4.1c0,11.2,0,16.9,0,28.1c7.9,3.9,12,5.8,20.1,9.2
	c0,2.3,0,3.5,0,5.8C145.2,1603.9,139.5,1601.3,128.5,1595.5z"/>
<path fill="#C20B19" d="M167.3,1613c0-13.7,0-20.5,0-34.1c3.3,1.3,5,1.9,8.3,3c0,13.7,0,20.5,0,34.1
	C172.3,1614.9,170.6,1614.3,167.3,1613z"/>
<path fill="#C20B19" d="M188.8,1586.2c6.7,2,10,3,16.7,4.6c3.3,0.8,5.8,1.5,7.5,2.1c1.6,0.6,3.1,1.4,4.4,2.4c1.3,1,2.4,2.2,3.2,3.5
	c0.9,1.4,1.3,2.8,1.3,4.3c0,1.6-0.5,3-1.6,4.1c-1.1,1.1-4.3,2.1-4.3,2.1c0,0.1,4.6,2.6,5.9,4.3c1.4,1.7,2.1,3.6,2.1,5.6
	c0,1.6-0.4,3-1.3,4.3c-0.9,1.3-2.1,2.2-3.7,2.8c-1.5,0.6-3.5,0.7-5.7,0.4c-1.4-0.2-4.9-0.9-10.3-2.2c-5.7-1.5-8.6-2.3-14.2-4
	C188.8,1606.7,188.8,1599.9,188.8,1586.2z M197.3,1594.3c0,3.2,0,4.7,0,7.9c2.2,0.6,3.3,0.9,5.5,1.5c3.3,0.9,5.4,1.3,6.2,1.4
	c1.4,0.2,2.6,0.1,3.4-0.4c0.8-0.5,1.3-1.3,1.3-2.4c0-1.1-0.4-2-1.1-2.8c-0.7-0.8-1.8-1.5-3.2-2c-0.8-0.3-3.3-0.9-7.3-1.9
	C200.2,1595.1,199.2,1594.9,197.3,1594.3z M197.3,1607.9c0,3.6,0,5.5,0,9.1c3.1,0.9,4.7,1.3,7.8,2.1c3.1,0.8,5,1.1,5.8,1.2
	c1.3,0.1,2.3-0.1,3.1-0.7c0.8-0.5,1.2-1.4,1.2-2.6c0-1-0.3-2-0.9-2.8c-0.6-0.9-1.5-1.6-2.7-2.2c-1.2-0.6-3.7-1.3-7.5-2.3
	C201.4,1609,200,1608.7,197.3,1607.9z"/>
<path fill="#C20B19" d="M236.7,1631.3c0-13.6,0-20.5,0-34.1c12.6,1.9,19,2.6,31.7,3.4c0,2.3,0,3.5,0,5.8c-9.3-0.6-13.9-1-23.1-2.2
	c0,3,0,4.5,0,7.6c8.6,1.1,12.9,1.5,21.5,2c0,2.3,0,3.5,0,5.8c-8.6-0.5-12.9-1-21.5-2c0,3.7,0,5.6,0,9.3c9.6,1.2,14.3,1.7,23.9,2.2
	c0,2.3,0,3.4,0,5.8C256.2,1633.9,249.7,1633.2,236.7,1631.3z"/>
<path fill="#C20B19" d="M282.1,1635.1c0-13.7,0-20.5,0-34.1c7.3,0.1,11,0.1,18.3-0.1c4.6-0.2,7.9-0.1,10,0.4c2.1,0.5,3.7,1.5,5,2.9
	c1.2,1.5,1.9,3.2,1.9,5.2c0,2.6-0.9,4.8-2.8,6.6c-1.9,1.8-8.5,3.7-8.5,3.7c0,0.1,3.4,1.6,4.6,2.6c1.2,1,2.9,2.7,4.9,5.2
	c2.1,2.5,3.1,3.7,5.2,6.2c-4.1,0.4-6.2,0.6-10.4,0.8c-2.5-2.8-3.8-4.2-6.3-7.1c-2.2-2.6-3.8-4.2-4.6-4.8c-0.8-0.7-1.7-1.1-2.6-1.4
	c-0.9-0.2-2.4-0.3-4.4-0.3c-0.7,0-1.1,0-1.8,0c0,5.7,0,8.5,0,14.3C287.3,1635.2,285.6,1635.2,282.1,1635.1z M290.8,1615.5
	c2.6,0,3.9,0,6.4-0.1c4.2-0.1,6.8-0.4,7.8-0.7c1-0.3,1.8-0.9,2.4-1.6c0.6-0.7,0.9-1.6,0.9-2.6c0-1.1-0.4-2-1.2-2.7
	c-0.8-0.7-1.9-1.1-3.3-1.2c-0.7-0.1-2.8,0-6.3,0.1c-2.7,0.1-4.1,0.1-6.8,0.1C290.8,1610.3,290.8,1612,290.8,1615.5z"/>
<path fill="#C20B19" d="M340.5,1631.2c0-11.3,0-17,0-28.4c-5.1,0.8-7.6,1.1-12.7,1.7c0-2.3,0-3.5,0-5.8c13.6-1.6,20.4-2.7,33.8-5.6
	c0,2.3,0,3.5,0,5.8c-5,1.1-7.5,1.6-12.5,2.5c0,11.3,0,17,0,28.4C345.6,1630.4,343.9,1630.7,340.5,1631.2z"/>
<path fill="#C20B19" d="M405.6,1614.6c-3.6,1.3-5.4,1.9-9,3.1c-1.4-2.6-2.2-3.9-3.6-6.6c-6.6,2.1-10,3.1-16.7,4.9
	c-1.4,3.5-2.1,5.2-3.5,8.6c-3.6,0.9-5.4,1.4-9,2.2c6.6-15.1,9.8-22.8,16.4-38.3c3.6-1,5.4-1.5,8.9-2.6
	C395.7,1597.6,399,1603.3,405.6,1614.6z M390.2,1606.2c-2.3-4.4-3.4-6.5-5.7-10.9c-2.3,5.7-3.4,8.6-5.6,14.3
	C383.4,1608.3,385.7,1607.7,390.2,1606.2z"/>
<path fill="#C20B19" d="M415.1,1576.8c6-2.4,9-3.7,14.9-6.3c3.3-1.5,5.9-2.5,7.6-2.9c2.3-0.5,4.3-0.5,6,0.2c1.6,0.7,2.9,1.9,3.8,3.6
	c0.9,1.7,1.3,4.2,1.3,7.4c0,2.8-0.4,5.4-1.2,7.9c-1,3-2.4,5.7-4.2,8.2c-1.4,1.9-3.2,3.7-5.6,5.5c-1.8,1.3-4.1,2.7-7.1,4.1
	c-6.1,2.8-9.1,4.1-15.3,6.5C415.1,1597.3,415.1,1590.4,415.1,1576.8z M423.3,1579.2c0,9,0,13.6,0,22.6c2.4-1,3.6-1.6,6.1-2.7
	c2.3-1,3.9-1.9,4.9-2.6c1.3-0.9,2.4-1.9,3.2-3c0.9-1.1,1.6-2.5,2.1-4.3c0.5-1.8,0.8-4,0.8-6.6c0-2.6-0.3-4.5-0.8-5.7
	c-0.5-1.1-1.3-1.9-2.3-2.2c-1-0.3-2.2-0.3-3.7,0.2c-1.1,0.3-3.3,1.2-6.6,2.7C425.5,1578.2,424.8,1578.6,423.3,1579.2z"/>
<path fill="#C20B19" d="M993.6,1560.3c0-13.7,0-20.5,0-34.1c5.3,2.1,7.9,3.1,13.2,5c5.1,1.8,8.4,3,9.9,3.8c2.4,1.3,4.4,3,6,5.2
	c1.6,2.2,2.4,4.6,2.4,7.3c0,2.1-0.5,3.7-1.4,4.9c-0.9,1.2-2.1,1.9-3.5,2.3c-1.4,0.4-2.9,0.5-4.3,0.3c-2-0.3-4.9-1.1-8.6-2.4
	c-2.2-0.8-3.3-1.1-5.4-1.9c0,5.1,0,7.7,0,12.9C998.6,1562.2,996.9,1561.6,993.6,1560.3z M1001.9,1535.1c0,3.9,0,5.8,0,9.7
	c1.8,0.7,2.7,1,4.5,1.6c3.3,1.2,5.5,1.7,6.6,1.7c1.1,0,2-0.3,2.6-0.8c0.6-0.6,0.9-1.3,0.9-2.4c0-1.2-0.4-2.4-1.3-3.5
	c-0.9-1.1-2-2-3.4-2.6c-1-0.5-3-1.2-6-2.3C1004.3,1536,1003.5,1535.7,1001.9,1535.1z"/>
<path fill="#C20B19" d="M1035.7,1557.1c0-3.5,0.6-6.2,1.9-8.3c0.9-1.5,2.3-2.7,3.9-3.8c1.7-1,3.5-1.6,5.5-1.9
	c2.6-0.3,5.7-0.2,9.1,0.5c6.3,1.2,11.3,3.5,15.1,7.1c3.8,3.6,5.7,8.2,5.7,13.7c0,5.5-1.9,9.6-5.6,12.2c-3.8,2.6-8.8,3.4-15,2.3
	c-6.3-1.2-11.3-3.8-15-7.8C1037.6,1567.3,1035.7,1562.5,1035.7,1557.1z M1044.5,1558.9c0,3.9,1.1,7,3.3,9.5c2.2,2.5,5,4,8.4,4.7
	c3.4,0.6,6.2,0.1,8.4-1.5c2.2-1.6,3.3-4.4,3.3-8.4c0-3.9-1.1-7-3.2-9.3c-2.1-2.3-5-3.7-8.5-4.3c-3.5-0.6-6.4-0.3-8.5,1.2
	C1045.6,1552.3,1044.5,1555,1044.5,1558.9z"/>
<path fill="#C20B19" d="M1089.1,1582.8c0-13.7,0-20.5,0-34.1c7.3,0.6,11,0.8,18.3,1c4.6,0.1,7.9,0.4,10,1c2.1,0.6,3.7,1.7,5,3.2
	c1.3,1.5,1.9,3.3,1.9,5.3c0,2.6-1,4.7-2.8,6.4c-1.9,1.7-8.5,3.2-8.5,3.2c0,0.1,3.4,1.8,4.7,2.9c1.2,1,2.9,2.9,4.9,5.5
	c2.1,2.6,3.2,3.9,5.3,6.5c-4.1,0.2-6.2,0.2-10.4,0.2c-2.5-3-3.8-4.4-6.3-7.5c-2.2-2.7-3.8-4.4-4.6-5.1c-0.8-0.7-1.7-1.2-2.6-1.5
	c-0.9-0.3-2.4-0.5-4.4-0.6c-0.7,0-1.1-0.1-1.8-0.1c0,5.7,0,8.6,0,14.2C1094.3,1583.1,1092.6,1583,1089.1,1582.8z M1097.8,1563.6
	c2.6,0.1,3.9,0.2,6.4,0.3c4.2,0.1,6.8,0,7.8-0.2c1-0.3,1.8-0.8,2.4-1.4c0.6-0.7,0.9-1.5,0.9-2.6c0-1.1-0.4-2.1-1.2-2.8
	c-0.8-0.7-1.9-1.2-3.3-1.4c-0.7-0.1-2.8-0.1-6.3-0.3c-2.7-0.1-4.1-0.1-6.8-0.3C1097.8,1558.4,1097.8,1560.2,1097.8,1563.6z"/>
<path fill="#C20B19" d="M1160.2,1580.7c0-13.5,0-20.3,0-33.9c3.5-0.5,5.2-0.7,8.6-1.3c0,11.2,0,16.9,0,28.1
	c8.5-1.4,12.8-2.3,21.3-4.2c0,2.3,0,3.5,0,5.7C1178.2,1578,1172.2,1579.1,1160.2,1580.7z"/>
<path fill="#C20B19" d="M1238.7,1559.7c-3.6,1.5-5.4,2.2-8.9,3.5c-1.4-2.6-2.1-3.9-3.6-6.4c-6.6,2.4-9.9,3.5-16.5,5.5
	c-1.4,3.5-2.1,5.3-3.4,8.8c-3.6,1-5.4,1.5-9,2.5c6.5-15.3,9.8-23.1,16.2-38.8c3.5-1.1,5.3-1.7,8.8-2.9
	C1228.9,1543.1,1232.2,1548.7,1238.7,1559.7z M1223.5,1552c-2.3-4.3-3.4-6.4-5.7-10.7c-2.2,5.8-3.4,8.7-5.6,14.5
	C1216.7,1554.3,1219,1553.5,1223.5,1552z"/>
<path fill="#C20B19" d="M989.2,1595.6c3.2,2.2,4.8,3.2,8,5.3c-1.2,3.2-3.3,5.2-6.1,5.9c-2.8,0.6-6.4,0-10.7-1.9
	c-5.3-2.4-9.6-6.1-13-10.9c-3.4-4.8-5-9.9-5-15.3c0-5.7,1.7-9.2,5.1-10.6c3.4-1.4,7.9-0.8,13.5,1.7c4.9,2.2,8.9,5.1,12,8.8
	c1.8,2.2,3.2,4.8,4.2,7.9c-3.3-0.6-4.9-0.9-8.1-1.7c-0.5-2-1.5-3.8-3-5.4c-1.5-1.7-3.4-3-5.5-4c-3-1.3-5.4-1.6-7.2-0.6
	c-1.8,0.9-2.7,3.4-2.7,7.5c0,4.3,0.9,7.8,2.7,10.5c1.8,2.7,4.2,4.7,7.1,6.1c2.1,1,4,1.2,5.6,0.7
	C987.4,1599.2,988.6,1597.8,989.2,1595.6z"/>
<path fill="#C20B19" d="M1009.5,1581.7c3.3,1.1,5,1.7,8.3,2.7c0,7.4,0,11.1,0,18.5c0,2.9,0.1,4.9,0.3,5.8c0.3,1.5,1.2,2.9,2.6,4.2
	c1.4,1.3,3.2,2.2,5.6,2.9c2.4,0.7,4.2,0.8,5.4,0.3c1.2-0.5,2-1.3,2.2-2.4c0.2-1.1,0.4-3,0.4-5.7c0-7.6,0-11.3,0-18.9
	c3.4,0.9,5.1,1.3,8.5,2.1c0,7.2,0,10.8,0,17.9c0,4.1-0.2,6.9-0.7,8.5c-0.5,1.6-1.3,2.8-2.5,3.7c-1.2,0.9-2.9,1.4-4.9,1.6
	c-2.1,0.2-4.7-0.2-8.1-1.1c-4-1.1-7-2.4-9-3.8c-2-1.4-3.7-2.9-4.8-4.5c-1.2-1.6-2-3.1-2.3-4.6c-0.5-2.1-0.8-5.1-0.8-8.9
	C1009.4,1592.6,1009.5,1589,1009.5,1581.7z"/>
<path fill="#C20B19" d="M1057.3,1628.3c0-13.5,0-20.3,0-33.9c3.4,0.6,5.1,0.9,8.6,1.4c0,11.2,0,16.9,0,28.1
	c8.6,1.3,12.9,1.8,21.5,2.5c0,2.3,0,3.5,0,5.8C1075.3,1631.2,1069.3,1630.4,1057.3,1628.3z"/>
<path fill="#C20B19" d="M1104.2,1633.3c0-11.3,0-17,0-28.4c-5.1-0.2-7.7-0.3-12.7-0.7c0-2.3,0-3.5,0-5.8c13.6,1,20.5,1.1,34.2,0.7
	c0,2.3,0,3.5,0,5.8c-5.1,0.2-7.6,0.2-12.7,0.1c0,11.3,0,17,0,28.4C1109.5,1633.4,1107.7,1633.4,1104.2,1633.3z"/>
<path fill="#C20B19" d="M1136.7,1598.7c3.5-0.2,5.2-0.4,8.7-0.7c0,7.4,0,11.1,0,18.5c0,2.9,0.1,4.8,0.3,5.7c0.4,1.3,1.3,2.4,2.7,3.1
	c1.4,0.7,3.3,0.9,5.7,0.6c2.5-0.3,4.3-0.9,5.5-1.9c1.2-1,2-2.1,2.2-3.3c0.3-1.2,0.4-3.2,0.4-5.9c0-7.6,0-11.3,0-18.9
	c3.4-0.5,5.2-0.8,8.6-1.4c0,7.2,0,10.8,0,17.9c0,4.1-0.2,7-0.7,8.8c-0.5,1.8-1.3,3.3-2.6,4.7c-1.3,1.4-2.9,2.6-5,3.5
	c-2.1,1-4.8,1.7-8.2,2.1c-4.1,0.5-7.2,0.4-9.3-0.1c-2.1-0.6-3.8-1.4-5-2.5c-1.2-1.1-2-2.3-2.4-3.6c-0.6-1.9-0.8-4.8-0.8-8.6
	C1136.7,1609.6,1136.7,1605.9,1136.7,1598.7z"/>
<path fill="#C20B19" d="M1185.2,1626c0-13.6,0-20.5,0-34.1c7.2-1.6,10.8-2.5,17.9-4.4c4.5-1.2,7.7-1.9,9.7-1.9c2,0,3.6,0.5,4.8,1.7
	c1.2,1.2,1.8,2.8,1.8,4.8c0,2.6-0.9,5-2.7,7.2c-1.8,2.3-8.2,5.7-8.2,5.7c0,0.1,3.3,0.8,4.5,1.5c1.2,0.7,2.8,2,4.8,4c2,2,3,3,5,5
	c-4,1.4-6,2-10,3.3c-2.4-2.2-3.6-3.3-6.1-5.6c-2.2-2-3.6-3.3-4.4-3.8c-0.8-0.5-1.6-0.7-2.5-0.7c-0.9,0-2.3,0.2-4.3,0.7
	c-0.7,0.2-1,0.3-1.7,0.4c0,5.7,0,8.5,0,14.2C1190.3,1624.8,1188.6,1625.2,1185.2,1626z M1193.7,1604.3c2.5-0.6,3.8-0.9,6.3-1.6
	c4.1-1.1,6.6-2,7.6-2.5c1-0.6,1.8-1.3,2.4-2.2c0.6-0.8,0.9-1.8,0.9-2.8c0-1.1-0.4-2-1.1-2.4c-0.7-0.5-1.8-0.6-3.2-0.4
	c-0.7,0.1-2.7,0.7-6.1,1.6c-2.6,0.7-4,1-6.6,1.7C1193.7,1599.1,1193.7,1600.8,1193.7,1604.3z"/>
<path fill="#C20B19" d="M1268.5,1595.5c-3.4,1.8-5.2,2.7-8.7,4.4c-1.4-2.4-2.1-3.6-3.5-6.1c-6.4,3-9.6,4.5-16,7.1
	c-1.3,3.7-2,5.5-3.3,9.1c-3.5,1.4-5.2,2.1-8.7,3.4c6.4-16,9.5-24.1,15.8-40.4c3.4-1.5,5.2-2.2,8.6-3.8
	C1259.1,1579.9,1262.2,1585.1,1268.5,1595.5z M1253.8,1589.3c-2.2-4-3.3-6.1-5.5-10.2c-2.2,6-3.3,9-5.4,15
	C1247.3,1592.3,1249.5,1591.3,1253.8,1589.3z"/>
<path fill="#C20B19" d="M547.2,1477.8c-1.7,0.2-3.4,0.4-5.2,0.6c-0.8-6.2-1.5-12.5-2.3-18.7c-1.7,1.9-3.8,3.5-6.3,4.6
	c-0.2-1.5-0.4-3-0.6-4.5c1.3-0.6,2.7-1.6,4.2-3c1.5-1.4,2.4-2.9,2.8-4.5c1.4-0.2,2.9-0.3,4.3-0.5
	C545.2,1460.4,546.2,1469.1,547.2,1477.8z"/>
<path fill="#C20B19" d="M541.8,1478.7l-2.2-18.3c-1.7,1.7-3.7,3.1-5.9,4.2l-0.4,0.2l-0.7-5.1l0.2-0.1c1.3-0.6,2.6-1.6,4.1-2.9
	c1.4-1.3,2.3-2.8,2.7-4.4l0-0.2l0.2,0c1.4-0.2,2.9-0.3,4.3-0.5l0.3,0l0,0.3l3.1,26.3l-0.3,0c-1.7,0.2-3.5,0.4-5.2,0.6L541.8,1478.7z
	 M540,1459l2.3,19.1c1.5-0.2,3-0.4,4.6-0.5l-3-25.4c-1.3,0.1-2.5,0.3-3.8,0.4c-0.5,1.6-1.4,3.1-2.8,4.5c-1.4,1.3-2.8,2.3-4,2.9
	l0.5,3.8c2.3-1.1,4.2-2.5,5.8-4.3L540,1459z"/>
<path fill="#C20B19" d="M574.1,1455.1c-1.7,0.3-3.4,0.7-5,1c-0.2-1-0.6-1.7-1.2-2.1c-0.6-0.4-1.3-0.6-2.1-0.5
	c-1.1,0.1-2,0.7-2.7,1.7c-0.7,1-0.9,3-0.8,6c1.2-1.6,2.7-2.5,4.6-2.7c2.2-0.2,4.1,0.4,5.9,1.8c1.7,1.4,2.7,3.4,2.9,5.9
	c0.3,2.7-0.4,4.9-1.8,6.6c-1.5,1.8-3.5,2.8-6,3c-2.7,0.3-5.1-0.5-7-2.3c-2-1.9-3.2-5.1-3.7-9.7c-0.5-4.7,0-8.3,1.7-10.6
	c1.6-2.3,4-3.6,6.9-3.9c2.1-0.2,3.9,0.2,5.4,1.1C572.5,1451.5,573.5,1453.1,574.1,1455.1z M563.3,1467.1c0.2,1.6,0.7,2.8,1.6,3.6
	c0.9,0.8,1.8,1.1,2.8,1c1-0.1,1.7-0.5,2.3-1.3c0.6-0.8,0.8-2,0.6-3.6c-0.2-1.7-0.6-2.9-1.4-3.6c-0.8-0.7-1.7-1-2.7-0.9
	c-1,0.1-1.8,0.6-2.4,1.4C563.4,1464.5,563.2,1465.7,563.3,1467.1z"/>
<path fill="#C20B19" d="M566.8,1476.3c-2.4,0-4.4-0.8-6.2-2.5c-2-1.9-3.3-5.2-3.8-9.9c-0.5-4.8,0.1-8.4,1.7-10.8
	c1.7-2.4,4.1-3.7,7.2-4c2.2-0.2,4,0.2,5.6,1.2c1.5,1,2.6,2.6,3.2,4.7l0.1,0.3l-0.3,0.1c-1.7,0.3-3.4,0.7-5,1l-0.3,0.1l-0.1-0.3
	c-0.2-0.9-0.6-1.5-1.1-1.9c-0.5-0.4-1.1-0.5-1.9-0.4c-1,0.1-1.8,0.6-2.4,1.6c-0.6,0.9-0.8,2.6-0.8,5c1.1-1.2,2.6-2,4.3-2.1
	c2.3-0.2,4.3,0.4,6.1,1.9c1.8,1.5,2.8,3.5,3,6.1c0.3,2.7-0.4,5-1.9,6.8c-1.5,1.8-3.6,2.9-6.2,3.1
	C567.5,1476.3,567.1,1476.3,566.8,1476.3z M566.8,1449.7c-0.3,0-0.7,0-1.1,0.1c-2.9,0.3-5.1,1.6-6.7,3.8c-1.6,2.2-2.1,5.7-1.6,10.4
	c0.5,4.5,1.7,7.7,3.6,9.5c1.9,1.8,4.2,2.5,6.8,2.3c2.5-0.2,4.4-1.2,5.8-2.9c1.4-1.7,2-3.8,1.8-6.4c-0.2-2.4-1.2-4.3-2.8-5.7
	c-1.6-1.4-3.5-2-5.6-1.7c-1.8,0.2-3.3,1.1-4.4,2.6l-0.5,0.7l0-0.9c-0.1-3.1,0.2-5.1,0.9-6.2c0.7-1.1,1.7-1.7,2.9-1.8
	c0.9-0.1,1.7,0.1,2.3,0.6c0.6,0.4,1,1.1,1.2,2c1.5-0.3,2.9-0.6,4.4-0.9c-0.6-1.8-1.5-3.2-2.9-4.1
	C569.7,1450.1,568.3,1449.7,566.8,1449.7z M567.3,1472.1c-1,0-1.9-0.4-2.7-1.1c-0.9-0.9-1.5-2.1-1.7-3.8c-0.2-1.5,0.1-2.8,0.8-3.6
	c0.7-0.9,1.6-1.4,2.7-1.5c1.1-0.1,2.1,0.2,3,1c0.8,0.8,1.3,2,1.5,3.8c0.2,1.7-0.1,3-0.7,3.9c-0.6,0.8-1.5,1.3-2.5,1.4
	C567.6,1472.1,567.5,1472.1,567.3,1472.1z M566.8,1462.6c-0.1,0-0.2,0-0.4,0c-0.9,0.1-1.6,0.5-2.2,1.3c-0.6,0.8-0.8,1.8-0.6,3.2
	c0.2,1.5,0.7,2.7,1.5,3.4c0.8,0.7,1.7,1,2.6,1c0.9-0.1,1.6-0.5,2.1-1.2c0.5-0.7,0.7-1.9,0.6-3.4c-0.2-1.6-0.6-2.7-1.3-3.4
	C568.3,1462.9,567.6,1462.6,566.8,1462.6z"/>
<path fill="#C20B19" d="M595.9,1446.8c3.4-0.3,6.8-0.5,10.2-0.8c2.3-0.2,4.1-0.1,5.3,0.1c1.6,0.3,3.1,1,4.3,2.1
	c1.2,1.1,2.2,2.4,2.9,4c0.7,1.6,1.1,3.7,1.3,6.1c0.1,2.1,0,4-0.5,5.6c-0.6,1.9-1.4,3.5-2.6,4.8c-0.9,0.9-2.1,1.7-3.7,2.3
	c-1.2,0.4-2.8,0.7-4.8,0.9c-3.4,0.2-6.9,0.5-10.3,0.8C597.3,1464.1,596.6,1455.5,595.9,1446.8z M601.8,1450.8
	c0.4,5.7,0.9,11.5,1.3,17.2c1.4-0.1,2.7-0.2,4.1-0.3c1.5-0.1,2.6-0.3,3.3-0.5c0.9-0.3,1.6-0.7,2.1-1.2c0.6-0.6,1-1.4,1.3-2.6
	c0.3-1.2,0.4-2.8,0.2-4.8c-0.1-2-0.4-3.5-0.9-4.6c-0.4-1-1-1.9-1.7-2.4c-0.7-0.6-1.6-0.9-2.7-1c-0.8-0.1-2.3-0.1-4.6,0.1
	C603.5,1450.7,602.6,1450.7,601.8,1450.8z"/>
<path fill="#C20B19" d="M597.7,1473.1l-2.1-26.6l0.3,0c3.4-0.3,6.8-0.5,10.2-0.8c2.3-0.2,4.1-0.1,5.4,0.1c1.7,0.3,3.2,1.1,4.5,2.2
	c1.3,1.1,2.3,2.5,3,4.2c0.7,1.6,1.2,3.7,1.3,6.2c0.1,2.2,0,4.1-0.5,5.7c-0.6,2-1.5,3.6-2.7,4.9c-0.9,1-2.2,1.8-3.8,2.4
	c-1.2,0.5-2.8,0.8-4.9,0.9c-3.4,0.2-6.9,0.5-10.3,0.8L597.7,1473.1z M596.2,1447.1l2,25.4c3.3-0.3,6.7-0.5,10-0.8
	c2-0.1,3.6-0.4,4.7-0.9c1.5-0.6,2.7-1.3,3.6-2.3c1.1-1.2,2-2.8,2.6-4.7c0.4-1.5,0.6-3.4,0.5-5.5c-0.1-2.4-0.6-4.4-1.3-6
	c-0.7-1.6-1.6-2.9-2.8-3.9c-1.2-1-2.6-1.7-4.2-2c-1.2-0.2-3-0.3-5.2-0.1C602.8,1446.6,599.5,1446.8,596.2,1447.1z M602.8,1468.3
	l-1.3-17.8l2.7-0.2c2.4-0.2,3.9-0.2,4.7-0.1c1.1,0.1,2,0.5,2.8,1.1c0.8,0.6,1.4,1.4,1.8,2.5c0.5,1.1,0.8,2.7,0.9,4.7
	c0.1,2,0.1,3.7-0.2,4.9c-0.3,1.2-0.8,2.2-1.4,2.8c-0.6,0.6-1.3,1-2.3,1.3c-0.7,0.2-1.8,0.4-3.4,0.5L602.8,1468.3z M602.1,1451.1
	l1.2,16.6l3.8-0.3c1.5-0.1,2.6-0.3,3.2-0.5c0.8-0.3,1.5-0.6,2-1.2c0.5-0.5,0.9-1.3,1.2-2.5c0.3-1.2,0.4-2.7,0.2-4.7
	c-0.1-2-0.4-3.5-0.8-4.5c-0.4-1-1-1.8-1.6-2.3c-0.7-0.5-1.5-0.9-2.5-1c-0.8-0.1-2.3-0.1-4.5,0.1L602.1,1451.1z"/>
<path fill="#C20B19" d="M628.7,1470.7c-0.5-8.7-1-17.4-1.5-26c6.8-0.4,13.7-0.7,20.5-1c0.1,1.5,0.1,2.9,0.2,4.4
	c-5,0.2-9.9,0.4-14.9,0.7c0.1,1.9,0.2,3.8,0.3,5.8c4.6-0.2,9.2-0.5,13.8-0.7c0.1,1.5,0.1,2.9,0.2,4.4c-4.6,0.2-9.2,0.4-13.7,0.6
	c0.1,2.4,0.2,4.7,0.4,7.1c5.1-0.3,10.1-0.5,15.2-0.7c0.1,1.5,0.1,2.9,0.2,4.4C642.5,1470,635.6,1470.3,628.7,1470.7z"/>
<path fill="#C20B19" d="M628.5,1471.1l-0.2-2.9l-1.3-23.7l0.3,0c6.9-0.4,13.7-0.7,20.5-1l0.3,0l0.2,5l-0.3,0
	c-4.8,0.2-9.7,0.4-14.6,0.7l0.3,5.2c4.5-0.2,9.1-0.4,13.5-0.6l0.3,0l0.2,5l-0.3,0c-4.4,0.2-8.9,0.4-13.4,0.6l0.3,6.5
	c4.9-0.3,9.9-0.5,14.9-0.7l0.3,0l0.2,5l-0.3,0c-6.8,0.3-13.8,0.6-20.6,1L628.5,1471.1z M627.6,1445l1.4,25.4c6.6-0.4,13.4-0.7,20-1
	l-0.2-3.8c-4.9,0.2-10,0.4-14.9,0.7l-0.3,0l-0.4-7.7l0.3,0c4.5-0.2,9-0.4,13.4-0.6l-0.2-3.8c-4.4,0.2-8.9,0.4-13.5,0.6l-0.3,0
	l-0.3-6.4l0.3,0c4.8-0.2,9.7-0.5,14.6-0.7l-0.2-3.8C640.9,1444.3,634.3,1444.6,627.6,1445z"/>
<path fill="#C20B19" d="M671.5,1469c-0.2-8.7-0.4-17.4-0.6-26.1c6.3-0.2,12.6-0.3,19-0.3c0,1.5,0,2.9,0,4.4c-4.5,0-8.9,0.1-13.3,0.2
	c0,2.1,0.1,4.1,0.1,6.2c3.8-0.1,7.6-0.1,11.5-0.2c0,1.5,0,2.9,0.1,4.4c-3.8,0-7.6,0.1-11.4,0.2c0.1,3.7,0.1,7.4,0.2,11.1
	C675.1,1468.9,673.3,1469,671.5,1469z"/>
<path fill="#C20B19" d="M671.2,1469.3l-0.6-26.7l0.3,0c6.2-0.2,12.6-0.3,19-0.3l0.3,0l0.1,5l-0.3,0c-4.3,0-8.7,0.1-13,0.2l0.1,5.6
	c3.7-0.1,7.4-0.1,11.2-0.2l0.3,0l0.1,5l-0.3,0c-3.7,0-7.4,0.1-11.1,0.2l0.2,11.1l-0.3,0c-1.8,0-3.7,0.1-5.5,0.1L671.2,1469.3z
	 M671.2,1443.2l0.6,25.4c1.6,0,3.2-0.1,4.9-0.1l-0.2-11.1l0.3,0c3.7-0.1,7.4-0.1,11.1-0.2l0-3.8c-3.7,0-7.4,0.1-11.1,0.2l-0.3,0
	l-0.1-6.8l0.3,0c4.3-0.1,8.7-0.2,13-0.2l0-3.8C683.4,1443,677.2,1443.1,671.2,1443.2z"/>
<path fill="#C20B19" d="M698.1,1468.6c0-8.7-0.1-17.4-0.1-26.1c6.8,0,13.7,0,20.5,0.1c0,1.5,0,2.9,0,4.4c-5-0.1-9.9-0.1-14.9-0.1
	c0,1.9,0,3.9,0,5.8c4.6,0,9.2,0,13.8,0.1c0,1.5,0,2.9,0,4.4c-4.6,0-9.2-0.1-13.7-0.1c0,2.4,0,4.7,0,7.1c5.1,0,10.1,0,15.2,0.1
	c0,1.5,0,2.9,0,4.4C711.8,1468.6,704.9,1468.6,698.1,1468.6z"/>
<path fill="#C20B19" d="M719,1469l-0.3,0c-4.8,0-9.7-0.1-14.5-0.1c-2.1,0-4.1,0-6.1,0l-0.3,0l-0.1-26.7l0.3,0c6.8,0,13.7,0,20.5,0.1
	l0.3,0l-0.1,5l-0.3,0c-4.6-0.1-9.4-0.1-14.2-0.1h-0.4l0,5.2h0.4c4.3,0,8.7,0,13.1,0.1l0.3,0l0,5l-0.3,0c-4.4,0-8.8-0.1-13.1-0.1
	h-0.4l0,6.5h0.3c4.8,0,9.7,0,14.6,0.1l0.3,0L719,1469z M704.2,1468.3c4.7,0,9.5,0,14.2,0.1l0-3.8c-4.7-0.1-9.5-0.1-14.3-0.1h-0.9
	l0-7.7h1c4.2,0,8.4,0,12.7,0.1l0-3.8c-4.3,0-8.6-0.1-12.8-0.1h-1l0-6.4h1c4.7,0,9.3,0,13.9,0.1l0-3.8c-6.6-0.1-13.3-0.1-19.9-0.1
	l0.1,25.5C700.3,1468.3,702.3,1468.3,704.2,1468.3z"/>
<path fill="#C20B19" d="M727.3,1442.7c3.7,0.1,7.4,0.1,11.1,0.2c2.2,0.1,3.8,0.2,4.9,0.4c1.1,0.2,2,0.6,2.9,1.2
	c0.8,0.6,1.5,1.3,2,2.3c0.5,0.9,0.8,2,0.8,3.1c0,1.2-0.4,2.3-1.2,3.3c-0.7,1-1.7,1.7-2.9,2.2c1.7,0.5,2.9,1.3,3.8,2.5
	c0.9,1.1,1.3,2.5,1.2,4c0,1.2-0.4,2.3-1,3.4c-0.6,1.1-1.4,2-2.4,2.6c-1,0.6-2.2,1-3.7,1.1c-0.9,0.1-3.1,0.1-6.6,0
	c-3.1-0.1-6.2-0.1-9.2-0.2C727,1460.1,727.1,1451.4,727.3,1442.7z M732.8,1447.2c0,2-0.1,4-0.1,6c1.2,0,2.4,0.1,3.6,0.1
	c2.2,0,3.5,0.1,4,0c1-0.1,1.7-0.4,2.3-0.9c0.6-0.5,0.8-1.2,0.9-2c0-0.8-0.2-1.5-0.6-2c-0.5-0.5-1.1-0.8-2.1-1
	c-0.6-0.1-2.1-0.1-4.8-0.2C734.9,1447.2,733.8,1447.2,732.8,1447.2z M732.5,1457.5c-0.1,2.3-0.1,4.6-0.1,7c1.7,0,3.4,0.1,5.1,0.1
	c2,0.1,3.2,0,3.8-0.1c0.8-0.1,1.5-0.4,2-1c0.5-0.5,0.8-1.3,0.8-2.2c0-0.8-0.2-1.5-0.5-2c-0.4-0.6-0.9-1-1.7-1.2
	c-0.7-0.3-2.4-0.4-4.9-0.5C735.5,1457.6,734,1457.6,732.5,1457.5z"/>
<path fill="#C20B19" d="M740.3,1469.4c-1.1,0-2.5,0-4.3,0c-3.1-0.1-6.2-0.1-9.2-0.2l-0.3,0l0.4-26.7l0.3,0c3.7,0.1,7.4,0.1,11.1,0.2
	c2.2,0.1,3.8,0.2,4.9,0.4c1.1,0.2,2.1,0.6,3,1.2c0.9,0.6,1.6,1.4,2.1,2.4c0.6,1,0.8,2.1,0.8,3.2c0,1.3-0.5,2.4-1.2,3.5
	c-0.6,0.8-1.4,1.5-2.3,2c1.3,0.5,2.4,1.3,3.2,2.3c0.9,1.2,1.3,2.6,1.3,4.2c0,1.2-0.4,2.4-1,3.6c-0.6,1.1-1.5,2.1-2.5,2.7
	c-1.1,0.7-2.3,1.1-3.9,1.2C742.2,1469.3,741.5,1469.4,740.3,1469.4z M727.1,1468.5c3,0.1,6,0.1,8.9,0.2c3.5,0.1,5.7,0.1,6.6,0
	c1.4-0.1,2.6-0.5,3.6-1.1c1-0.6,1.7-1.4,2.3-2.5c0.6-1,0.9-2.2,0.9-3.3c0-1.4-0.3-2.7-1.2-3.8c-0.8-1.1-2-1.9-3.6-2.4l-0.8-0.3
	l0.8-0.3c1.1-0.4,2.1-1.2,2.8-2.1c0.7-0.9,1-2,1.1-3.2c0-1.1-0.2-2.1-0.7-2.9c-0.5-0.9-1.2-1.6-2-2.2c-0.8-0.5-1.7-0.9-2.7-1.1
	c-1.1-0.2-2.7-0.3-4.8-0.4c-3.6-0.1-7.2-0.2-10.7-0.2L727.1,1468.5z M739.3,1465c-0.5,0-1.2,0-1.9,0c-1.7,0-3.4-0.1-5.1-0.1l-0.3,0
	l0.2-7.6l0.3,0c1.5,0,3,0.1,4.5,0.1c2.6,0.1,4.2,0.2,5,0.5c0.8,0.3,1.4,0.7,1.8,1.4c0.4,0.6,0.6,1.3,0.6,2.2c0,1-0.3,1.8-0.9,2.4
	c-0.6,0.6-1.3,0.9-2.2,1.1C740.9,1464.9,740.3,1465,739.3,1465z M732.7,1464.2c1.6,0,3.2,0.1,4.8,0.1c2,0.1,3.2,0,3.7-0.1
	c0.8-0.1,1.4-0.4,1.9-0.9c0.5-0.5,0.7-1.1,0.7-2c0-0.7-0.1-1.3-0.5-1.8c-0.3-0.5-0.9-0.9-1.5-1.1c-0.5-0.2-1.7-0.4-4.8-0.5
	c-1.4,0-2.8-0.1-4.1-0.1L732.7,1464.2z M739,1453.6c-0.7,0-1.6,0-2.8,0c-1.2,0-2.4-0.1-3.6-0.1l-0.3,0l0.1-6.6l3.5,0.1
	c2.5,0.1,4.2,0.1,4.8,0.2c1,0.1,1.8,0.5,2.3,1.1c0.5,0.6,0.7,1.3,0.7,2.2c0,0.9-0.4,1.7-1,2.2c-0.6,0.5-1.4,0.9-2.5,1
	C740.1,1453.6,739.7,1453.6,739,1453.6z M732.9,1452.9c1.1,0,2.2,0,3.3,0.1c2.1,0.1,3.5,0.1,4,0c0.9-0.1,1.6-0.3,2.1-0.8
	c0.5-0.5,0.7-1,0.8-1.8c0-0.7-0.2-1.3-0.6-1.8c-0.4-0.5-1-0.8-1.9-0.9c-0.3,0-1.4-0.1-4.7-0.2l-2.9-0.1L732.9,1452.9z"/>
<path fill="#C20B19" d="M757.6,1469.7c0.3-8.7,0.7-17.4,1-26.1c3.9,0.2,7.8,0.3,11.7,0.5c3,0.1,5.1,0.5,6.4,1
	c1.3,0.5,2.3,1.4,3.1,2.7c0.7,1.2,1.1,2.6,1,4.2c-0.1,2-0.8,3.5-2.1,4.7c-1.3,1.2-3.1,1.9-5.5,2.1c1.2,0.7,2.1,1.5,2.8,2.3
	c0.7,0.8,1.7,2.3,2.9,4.4c1,1.8,2,3.5,3,5.3c-2.2-0.1-4.4-0.2-6.5-0.4c-1.2-2-2.4-3.9-3.7-5.9c-1.3-2.1-2.2-3.4-2.7-4
	c-0.5-0.5-1-0.9-1.6-1.2c-0.6-0.2-1.5-0.4-2.8-0.4c-0.4,0-0.7,0-1.1,0c-0.2,3.6-0.3,7.3-0.5,10.9
	C761.3,1469.8,759.5,1469.7,757.6,1469.7z M763.8,1454.9c1.4,0.1,2.7,0.1,4.1,0.2c2.7,0.1,4.3,0.1,5-0.1c0.7-0.2,1.2-0.5,1.6-1
	c0.4-0.5,0.6-1.1,0.7-1.9c0-0.9-0.2-1.6-0.6-2.2c-0.5-0.6-1.2-0.9-2-1.1c-0.4-0.1-1.8-0.2-4.1-0.3c-1.4-0.1-2.9-0.1-4.3-0.2
	C764,1450.5,763.9,1452.7,763.8,1454.9z"/>
<path fill="#C20B19" d="M782.6,1471.2l-0.6,0c-2.2-0.1-4.4-0.2-6.5-0.4l-0.2,0l-0.1-0.1c-1.2-2-2.4-3.9-3.7-5.9
	c-1.3-2.1-2.2-3.4-2.7-3.9c-0.5-0.5-1-0.9-1.5-1.1c-0.6-0.2-1.5-0.3-2.7-0.4l-0.8,0l-0.5,10.9l-0.3,0c-1.8-0.1-3.7-0.2-5.5-0.2
	l-0.3,0l1.1-26.7l0.3,0c3.9,0.2,7.8,0.3,11.8,0.5c3,0.1,5.2,0.5,6.5,1.1c1.4,0.6,2.5,1.5,3.2,2.8c0.8,1.3,1.1,2.8,1,4.3
	c-0.1,2-0.9,3.7-2.2,5c-1.2,1.1-2.8,1.8-4.9,2.1c0.9,0.6,1.6,1.3,2.2,1.9c0.7,0.9,1.7,2.3,2.9,4.4c1,1.8,2,3.5,3,5.3L782.6,1471.2z
	 M775.7,1470.2c1.9,0.1,3.9,0.2,5.8,0.3c-0.9-1.6-1.8-3.2-2.7-4.8c-1.2-2.1-2.1-3.5-2.9-4.4c-0.7-0.8-1.6-1.6-2.8-2.3l-0.8-0.5
	l0.9-0.1c2.3-0.2,4.1-0.9,5.4-2c1.2-1.1,1.9-2.7,2-4.5c0.1-1.5-0.2-2.8-0.9-4c-0.7-1.2-1.7-2-2.9-2.5c-1.3-0.5-3.4-0.9-6.3-1
	c-3.8-0.2-7.6-0.4-11.4-0.5l-1,25.4c1.6,0.1,3.2,0.1,4.9,0.2l0.5-10.9l1.4,0.1c1.3,0.1,2.3,0.2,2.9,0.4c0.6,0.2,1.2,0.7,1.7,1.2
	c0.5,0.6,1.4,1.9,2.8,4C773.3,1466.4,774.5,1468.3,775.7,1470.2z M770.7,1455.4c-0.8,0-1.7,0-2.8-0.1c-1.4-0.1-2.7-0.1-4.1-0.2
	l-0.3,0l0.3-7.2l0.3,0c1.4,0.1,2.9,0.1,4.4,0.2c2.2,0.1,3.6,0.2,4.1,0.3c1,0.2,1.7,0.6,2.2,1.2c0.5,0.6,0.8,1.4,0.7,2.4
	c0,0.8-0.3,1.5-0.7,2.1c-0.4,0.6-1,0.9-1.8,1.1C772.5,1455.4,771.8,1455.4,770.7,1455.4z M764.1,1454.6c1.3,0.1,2.5,0.1,3.8,0.2
	c2.6,0.1,4.3,0.1,4.9-0.1c0.6-0.2,1.1-0.5,1.4-0.9c0.4-0.4,0.6-1,0.6-1.7c0-0.8-0.1-1.4-0.6-1.9c-0.4-0.5-1-0.9-1.9-1
	c-0.3-0.1-1.2-0.1-4-0.3c-1.3-0.1-2.7-0.1-4-0.2L764.1,1454.6z"/>
<path fill="#C20B19" d="M788.4,1471.2c0.5-8.7,1.1-17.4,1.6-26c6.8,0.4,13.7,0.9,20.5,1.4c-0.1,1.5-0.2,2.9-0.3,4.4
	c-4.9-0.4-9.9-0.7-14.8-1.1c-0.1,1.9-0.3,3.8-0.4,5.8c4.6,0.3,9.2,0.6,13.8,1c-0.1,1.5-0.2,2.9-0.3,4.4c-4.6-0.4-9.1-0.7-13.7-1
	c-0.2,2.4-0.3,4.7-0.5,7.1c5.1,0.3,10.1,0.7,15.2,1.1c-0.1,1.5-0.2,2.9-0.3,4.4C802.2,1472.2,795.3,1471.7,788.4,1471.2z"/>
<path fill="#C20B19" d="M809.3,1473l-0.3,0c-6.8-0.5-13.7-1-20.6-1.4l-0.3,0l1.7-26.6l0.3,0c6.9,0.4,13.8,0.9,20.5,1.4l0.3,0l-0.4,5
	l-0.3,0c-5-0.4-9.8-0.7-14.5-1.1l-0.3,5.1c4.4,0.3,8.9,0.6,13.5,1l0.3,0l-0.4,5l-0.3,0c-4.4-0.3-8.9-0.7-13.4-1l-0.4,6.5
	c5,0.3,10,0.7,14.9,1.1l0.3,0L809.3,1473z M788.8,1471c6.7,0.4,13.4,0.9,20,1.4l0.3-3.8c-4.9-0.4-9.9-0.7-14.9-1.1l-0.3,0l0.5-7.7
	l0.3,0c4.5,0.3,9,0.6,13.4,1l0.3-3.8c-4.5-0.3-9.1-0.7-13.5-1l-0.3,0l0.4-6.4l0.3,0c4.7,0.3,9.6,0.7,14.5,1l0.3-3.8
	c-6.5-0.5-13.2-1-19.8-1.4L788.8,1471z"/>
<path fill="#C20B19" d="M817.1,1473.3c0.7-8.7,1.5-17.3,2.2-26c3.9,0.3,7.8,0.7,11.7,1c3,0.3,5.1,0.7,6.4,1.3c1.3,0.6,2.3,1.5,3,2.8
	c0.7,1.3,0.9,2.7,0.8,4.2c-0.2,1.9-1,3.5-2.3,4.6c-1.3,1.1-3.2,1.8-5.6,1.9c1.1,0.8,2,1.6,2.7,2.5c0.7,0.9,1.6,2.4,2.7,4.5
	c0.9,1.8,1.9,3.6,2.8,5.4c-2.2-0.2-4.4-0.4-6.5-0.7c-1.1-2-2.3-4-3.4-6c-1.2-2.2-2.1-3.5-2.5-4.1c-0.5-0.6-1-1-1.6-1.2
	c-0.6-0.2-1.5-0.4-2.7-0.5c-0.4,0-0.7-0.1-1.1-0.1c-0.3,3.6-0.6,7.2-0.9,10.8C820.8,1473.7,819,1473.5,817.1,1473.3z M823.9,1458.8
	c1.4,0.1,2.7,0.2,4.1,0.4c2.6,0.2,4.3,0.3,5,0.1c0.7-0.2,1.2-0.5,1.7-1c0.4-0.5,0.7-1.1,0.8-1.9c0.1-0.9-0.1-1.6-0.5-2.2
	c-0.4-0.6-1.1-1-2-1.2c-0.4-0.1-1.8-0.3-4-0.5c-1.4-0.1-2.9-0.3-4.3-0.4C824.3,1454.4,824.1,1456.6,823.9,1458.8z"/>
<path fill="#C20B19" d="M842,1476l-0.6-0.1c-2.2-0.2-4.4-0.4-6.5-0.6l-0.2,0l-0.1-0.1c-1.1-2-2.3-4-3.4-6c-1.2-2.1-2-3.5-2.5-4
	c-0.4-0.5-0.9-0.9-1.4-1.2c-0.5-0.2-1.4-0.4-2.6-0.5l-0.8-0.1c-0.3,3.5-0.6,7-0.9,10.5l0,0.3l-0.3,0c-1.8-0.2-3.6-0.3-5.5-0.5
	l-0.3,0l0-0.3l2.2-26.3l0.3,0c3.9,0.3,7.8,0.7,11.7,1c3,0.3,5.1,0.7,6.5,1.3c1.3,0.6,2.4,1.6,3.1,2.9c0.7,1.3,1,2.8,0.8,4.4
	c-0.2,2-1,3.6-2.4,4.8c-1.2,1.1-2.9,1.7-5,1.9c0.8,0.6,1.6,1.3,2.1,2c0.7,0.9,1.6,2.4,2.7,4.6c0.9,1.8,1.9,3.6,2.8,5.4L842,1476z
	 M835.1,1474.7c1.9,0.2,3.9,0.4,5.8,0.6c-0.8-1.6-1.7-3.3-2.5-4.9c-1.1-2.1-2-3.6-2.7-4.5c-0.7-0.8-1.6-1.6-2.7-2.4l-0.8-0.5l0.9,0
	c2.4-0.1,4.2-0.7,5.5-1.8c1.3-1.1,2-2.6,2.2-4.4c0.1-1.5-0.1-2.8-0.8-4c-0.6-1.2-1.6-2.1-2.8-2.7c-1.3-0.6-3.4-1-6.3-1.3
	c-3.8-0.4-7.6-0.7-11.4-1l-2.1,25.4c1.6,0.1,3.2,0.3,4.9,0.4c0.3-3.5,0.6-7,0.9-10.5l0-0.3l1.4,0.1c1.3,0.1,2.3,0.3,2.9,0.6
	c0.6,0.3,1.2,0.7,1.7,1.3c0.5,0.6,1.4,2,2.6,4.1C832.9,1470.7,834,1472.7,835.1,1474.7z M831.8,1459.7c-0.9,0-2.2-0.1-3.8-0.2
	c-1.4-0.1-2.7-0.2-4.1-0.4l-0.3,0l0-0.3c0.2-2.2,0.4-4.4,0.6-6.6l0-0.3l0.3,0c1.4,0.1,2.9,0.3,4.3,0.4c2.2,0.2,3.6,0.4,4.1,0.5
	c1,0.2,1.7,0.7,2.2,1.3c0.5,0.6,0.7,1.5,0.6,2.4c-0.1,0.8-0.3,1.5-0.8,2.1c-0.5,0.5-1.1,0.9-1.8,1.1
	C832.8,1459.7,832.4,1459.7,831.8,1459.7z M824.3,1458.6c1.3,0.1,2.5,0.2,3.8,0.3c2.6,0.2,4.3,0.3,4.9,0.1c0.6-0.1,1.1-0.4,1.5-0.8
	c0.4-0.4,0.6-1,0.7-1.7c0.1-0.8-0.1-1.5-0.5-2c-0.4-0.5-1-0.9-1.8-1.1c-0.3-0.1-1.2-0.2-4-0.5c-1.3-0.1-2.7-0.2-4-0.4
	C824.6,1454.6,824.4,1456.6,824.3,1458.6z"/>
<path fill="#C20B19" d="M848.1,1463.4c0.3-2.6,0.9-4.8,2-6.5c0.8-1.3,1.7-2.3,2.9-3.3c1.2-0.9,2.5-1.6,3.8-1.9
	c1.8-0.5,3.8-0.6,6.1-0.3c4.1,0.5,7.2,2.1,9.3,4.7c2.1,2.7,2.9,6.1,2.4,10.3c-0.5,4.2-2.1,7.3-4.8,9.4c-2.7,2.1-6,2.9-9.9,2.4
	c-4-0.5-7.1-2-9.2-4.6C848.5,1470.9,847.7,1467.5,848.1,1463.4z M853.8,1463.8c-0.3,2.9,0.1,5.2,1.4,6.9c1.3,1.7,3,2.6,5.1,2.9
	c2.2,0.3,4.1-0.3,5.6-1.6c1.6-1.3,2.6-3.5,2.9-6.5c0.4-3-0.1-5.3-1.3-6.9c-1.2-1.6-2.9-2.6-5.2-2.8c-2.3-0.3-4.2,0.3-5.8,1.6
	C855.1,1458.7,854.1,1460.8,853.8,1463.8z"/>
<path fill="#C20B19" d="M861.9,1478.5c-0.7,0-1.4,0-2.1-0.1c-4.1-0.5-7.2-2.1-9.4-4.7c-2.2-2.7-3-6.1-2.6-10.3c0.3-2.7,1-4.9,2-6.6
	c0.8-1.3,1.8-2.4,3-3.4c1.2-1,2.5-1.6,3.9-2c1.8-0.5,3.9-0.6,6.2-0.4c4.1,0.5,7.3,2.1,9.5,4.8c2.2,2.7,3,6.3,2.5,10.6
	c-0.5,4.2-2.2,7.5-4.9,9.6C867.7,1477.6,865,1478.5,861.9,1478.5z M860.6,1451.5c-1.3,0-2.6,0.2-3.7,0.5c-1.3,0.4-2.5,1-3.7,1.9
	c-1.2,0.9-2.1,2-2.9,3.2c-1,1.6-1.6,3.8-1.9,6.4c-0.4,4,0.4,7.3,2.5,9.9c2.1,2.5,5.1,4,9,4.5c3.9,0.4,7.1-0.3,9.7-2.3
	c2.6-2,4.2-5.1,4.7-9.2c0.5-4.1-0.3-7.5-2.3-10.1c-2.1-2.6-5.1-4.1-9.1-4.6C862.1,1451.5,861.3,1451.5,860.6,1451.5z M861.3,1474
	L861.3,1474c-0.3,0-0.7,0-1.1-0.1c-2.3-0.3-4.1-1.3-5.4-3c-1.3-1.7-1.8-4.1-1.5-7.1c0.3-3.1,1.3-5.3,2.9-6.7c1.6-1.4,3.6-1.9,6-1.7
	c2.4,0.3,4.2,1.3,5.4,3c1.2,1.7,1.7,4.1,1.3,7.1c-0.4,3.1-1.4,5.3-3,6.7C864.8,1473.4,863.2,1474,861.3,1474z M861.3,1456
	c-1.7,0-3.2,0.5-4.5,1.6c-1.5,1.3-2.4,3.4-2.7,6.3c-0.3,2.8,0.1,5.1,1.3,6.7c1.2,1.6,2.8,2.5,4.9,2.8c2.1,0.2,3.9-0.3,5.4-1.6
	c1.5-1.3,2.5-3.4,2.8-6.3c0.3-2.9-0.1-5.1-1.2-6.7c-1.1-1.5-2.8-2.5-5-2.7C862,1456,861.6,1456,861.3,1456z"/>
<path fill="#C20B19" d="M623.5,1494.7c3.3-0.2,6.6-0.4,9.8-0.6c2.2-0.1,3.9,0,5.1,0.2c1.6,0.4,3,1.1,4.1,2.2
	c1.2,1.1,2.1,2.5,2.7,4.1c0.7,1.6,1,3.7,1.1,6.1c0.1,2.2-0.1,4-0.6,5.6c-0.6,1.9-1.4,3.5-2.6,4.7c-0.9,0.9-2.1,1.7-3.6,2.3
	c-1.1,0.4-2.7,0.7-4.6,0.8c-3.3,0.2-6.6,0.4-9.9,0.6C624.6,1512,624,1503.3,623.5,1494.7z M629.1,1498.8c0.3,5.8,0.7,11.5,1,17.2
	c1.3-0.1,2.6-0.1,3.9-0.2c1.5-0.1,2.5-0.2,3.2-0.4c0.8-0.3,1.5-0.7,2.1-1.2c0.5-0.5,1-1.4,1.3-2.6c0.3-1.2,0.4-2.8,0.3-4.8
	c-0.1-2-0.4-3.5-0.8-4.6c-0.4-1.1-1-1.9-1.6-2.4c-0.7-0.6-1.5-0.9-2.5-1.1c-0.8-0.1-2.2-0.1-4.4,0
	C630.7,1498.7,629.9,1498.7,629.1,1498.8z"/>
<path fill="#C20B19" d="M624.8,1521l-1.6-26.6l0.3,0c3.3-0.2,6.6-0.4,9.8-0.6c2.2-0.1,4,0,5.2,0.2c1.6,0.4,3.1,1.2,4.3,2.3
	c1.2,1.1,2.1,2.5,2.8,4.2c0.7,1.7,1.1,3.8,1.2,6.2c0.1,2.2-0.1,4.1-0.6,5.7c-0.6,2-1.5,3.6-2.7,4.9c-0.9,1-2.2,1.7-3.7,2.3
	c-1.2,0.4-2.8,0.7-4.7,0.8c-3.3,0.2-6.6,0.4-9.9,0.6L624.8,1521z M623.8,1495l1.5,25.4c3.2-0.2,6.4-0.4,9.6-0.5
	c1.9-0.1,3.4-0.4,4.5-0.8c1.5-0.5,2.7-1.3,3.5-2.2c1.1-1.2,2-2.7,2.5-4.6c0.5-1.5,0.6-3.4,0.5-5.5c-0.1-2.4-0.5-4.4-1.1-6
	c-0.6-1.6-1.5-2.9-2.6-4c-1.1-1.1-2.5-1.8-4-2.1c-1.2-0.3-2.8-0.3-5-0.2C630.2,1494.6,627,1494.8,623.8,1495z M629.8,1516.3l-1-17.9
	l2.7-0.2c2.2-0.1,3.7-0.1,4.5,0c1.1,0.2,2,0.6,2.7,1.2c0.7,0.6,1.3,1.5,1.7,2.6c0.4,1.1,0.7,2.7,0.8,4.7c0.1,2,0,3.7-0.3,4.9
	c-0.3,1.3-0.8,2.1-1.3,2.7c-0.6,0.6-1.3,1-2.2,1.3c-0.7,0.2-1.7,0.3-3.3,0.4c-1.3,0.1-2.6,0.1-3.9,0.2L629.8,1516.3z M629.5,1499
	l0.9,16.6c1.2-0.1,2.4-0.1,3.6-0.2c1.5-0.1,2.5-0.2,3.1-0.4c0.8-0.2,1.5-0.6,2-1.1c0.5-0.5,0.9-1.3,1.2-2.4c0.3-1.1,0.4-2.7,0.3-4.7
	c-0.1-2-0.3-3.5-0.7-4.5c-0.4-1-0.9-1.8-1.6-2.3c-0.6-0.5-1.4-0.9-2.4-1c-0.7-0.1-2.2-0.1-4.4,0L629.5,1499z"/>
<path fill="#C20B19" d="M654.8,1519.2c-0.3-8.7-0.7-17.4-1-26.1c6.6-0.3,13.2-0.5,19.8-0.6c0,1.5,0.1,2.9,0.1,4.4
	c-4.8,0.1-9.6,0.2-14.3,0.4c0.1,1.9,0.1,3.9,0.2,5.8c4.4-0.1,8.9-0.3,13.3-0.4c0,1.5,0.1,2.9,0.1,4.4c-4.4,0.1-8.8,0.2-13.2,0.4
	c0.1,2.4,0.2,4.7,0.2,7.1c4.9-0.2,9.8-0.3,14.6-0.4c0,1.5,0.1,2.9,0.1,4.4C668,1518.8,661.4,1519,654.8,1519.2z"/>
<path fill="#C20B19" d="M654.5,1519.5l-1-26.7l0.3,0c6.5-0.3,13.2-0.5,19.8-0.6l0.3,0l0.1,5l-0.3,0c-4.7,0.1-9.4,0.2-14,0.4l0.2,5.2
	c4.4-0.1,8.7-0.3,13-0.4l0.3,0l0.1,5l-0.3,0c-4.2,0.1-8.6,0.2-12.9,0.4l0.2,6.5c4.8-0.2,9.6-0.3,14.3-0.4l0.3,0l0.1,5l-0.3,0
	c-6.6,0.2-13.3,0.4-19.9,0.6L654.5,1519.5z M654.1,1493.5l1,25.4c6.3-0.2,12.8-0.4,19.3-0.6l-0.1-3.8c-4.8,0.1-9.6,0.2-14.3,0.4
	l-0.3,0l-0.3-7.7l0.3,0c4.4-0.1,8.7-0.3,12.9-0.4l-0.1-3.8c-4.2,0.1-8.6,0.2-13,0.4l-0.3,0l-0.2-6.4l0.3,0c4.7-0.2,9.4-0.3,14-0.4
	l-0.1-3.8C666.8,1493,660.4,1493.2,654.1,1493.5z"/>
<path fill="#C20B19" d="M707.6,1518.3c-1.7,0-3.3,0-5,0c0-6.3,0-12.6,0-18.8c-1.9,1.7-4,3-6.5,3.8c0-1.5,0-3,0-4.5
	c1.3-0.4,2.8-1.2,4.3-2.4c1.6-1.2,2.6-2.6,3.2-4.2c1.4,0,2.8,0,4.2,0C707.7,1500.8,707.7,1509.6,707.6,1518.3z"/>
<path fill="#C20B19" d="M708,1518.6h-0.3c-1.7,0-3.3,0-5,0h-0.3l0-18.5c-1.8,1.5-3.8,2.7-6.1,3.4l-0.4,0.1l0-5.2l0.2-0.1
	c1.3-0.4,2.7-1.2,4.2-2.4c1.5-1.2,2.5-2.5,3.1-4l0.1-0.2h0.2c1.4,0,2.8,0,4.2,0h0.3v0.3L708,1518.6z M702.9,1518c1.5,0,2.9,0,4.4,0
	l0.1-25.6c-1.2,0-2.4,0-3.6,0c-0.6,1.6-1.7,2.9-3.2,4.1c-1.5,1.2-2.9,2-4.2,2.4l0,3.9c2.3-0.8,4.3-2,6-3.6l0.5-0.5L702.9,1518z"/>
<path fill="#C20B19" d="M722.9,1504.4c-1.3-0.6-2.2-1.3-2.8-2.3c-0.6-1-0.9-2-0.9-3.1c0-1.9,0.7-3.5,2.1-4.8c1.4-1.2,3.4-1.9,6-1.8
	c2.5,0,4.5,0.7,5.9,2c1.4,1.3,2,2.9,2,4.9c0,1.2-0.4,2.3-1,3.2c-0.7,0.9-1.6,1.6-2.7,2.1c1.5,0.6,2.5,1.5,3.3,2.6
	c0.7,1.1,1.1,2.4,1,3.9c-0.1,2.4-0.9,4.3-2.5,5.8c-1.6,1.5-3.6,2.2-6.2,2.1c-2.4,0-4.3-0.7-5.9-2c-1.8-1.5-2.8-3.5-2.7-6.1
	c0-1.4,0.4-2.7,1.1-3.9C720.3,1505.9,721.4,1505,722.9,1504.4z M723.4,1510.5c0,1.4,0.3,2.5,1,3.2c0.7,0.8,1.6,1.2,2.6,1.2
	c1,0,1.9-0.3,2.6-1.1c0.7-0.7,1.1-1.8,1.1-3.2c0-1.2-0.3-2.2-1-3c-0.7-0.8-1.6-1.1-2.6-1.2c-1.2,0-2.2,0.4-2.8,1.2
	C723.8,1508.6,723.5,1509.5,723.4,1510.5z M724.1,1499.3c0,1,0.3,1.8,0.8,2.3c0.6,0.6,1.3,0.9,2.3,0.9c1,0,1.7-0.3,2.3-0.8
	c0.6-0.5,0.9-1.3,0.9-2.3c0-0.9-0.3-1.7-0.8-2.3c-0.6-0.6-1.3-0.9-2.3-0.9c-1,0-1.8,0.3-2.3,0.8
	C724.4,1497.7,724.1,1498.4,724.1,1499.3z"/>
<path fill="#C20B19" d="M727.3,1519.3l-0.2,0c-2.4,0-4.5-0.7-6.1-2c-1.9-1.6-2.9-3.7-2.9-6.3c0-1.5,0.4-2.8,1.1-4
	c0.7-1.1,1.6-1.9,2.9-2.5c-1.1-0.6-1.8-1.3-2.4-2.1c-0.6-1-0.9-2.1-0.9-3.3c0-2,0.8-3.7,2.2-5c1.4-1.3,3.4-1.9,5.9-1.9h0.3
	c2.6,0,4.6,0.8,6.1,2.1c1.4,1.4,2.1,3.1,2.1,5.1c0,1.3-0.4,2.4-1.1,3.4c-0.6,0.8-1.3,1.4-2.3,1.9c1.2,0.6,2.2,1.4,2.8,2.4
	c0.8,1.2,1.1,2.5,1.1,4.1c-0.1,2.5-0.9,4.5-2.6,6C731.9,1518.5,729.9,1519.3,727.3,1519.3z M727.1,1492.6c-2.3,0-4.2,0.6-5.5,1.7
	c-1.3,1.2-2,2.7-2,4.6c0,1.1,0.3,2.1,0.8,3c0.5,0.9,1.5,1.6,2.7,2.2l0.7,0.3l-0.7,0.3c-1.5,0.6-2.6,1.5-3.2,2.6
	c-0.7,1.1-1,2.4-1,3.7c0,2.4,0.8,4.4,2.6,5.8c1.5,1.2,3.4,1.9,5.7,1.9l0.2,0c2.4,0,4.3-0.7,5.8-2.1c1.5-1.4,2.3-3.3,2.4-5.6
	c0-1.4-0.3-2.6-1-3.7c-0.7-1.1-1.8-1.9-3.1-2.5l-0.7-0.3l0.7-0.3c1.1-0.5,2-1.1,2.6-2c0.6-0.9,1-1.9,1-3c0-1.8-0.6-3.4-1.9-4.6
	c-1.3-1.2-3.2-1.9-5.7-1.9L727.1,1492.6z M727.2,1515.2L727.2,1515.2c-1.2,0-2.2-0.5-2.9-1.3c-0.7-0.8-1.1-2-1.1-3.4
	c0-1.1,0.4-2,1-2.9c0.7-0.9,1.7-1.3,2.9-1.3h0.1c1.2,0,2.1,0.4,2.9,1.3c0.7,0.8,1.1,1.9,1.1,3.2c0,1.5-0.4,2.6-1.2,3.4
	C729.2,1514.9,728.3,1515.2,727.2,1515.2z M727.1,1506.9c-1.1,0-1.9,0.4-2.4,1.1c-0.6,0.8-0.9,1.6-0.9,2.5c0,1.3,0.3,2.3,0.9,3
	c0.6,0.7,1.4,1.1,2.4,1.1h0c1,0,1.7-0.3,2.4-1c0.6-0.7,1-1.7,1-3c0-1.1-0.3-2.1-0.9-2.8C728.9,1507.2,728.2,1506.9,727.1,1506.9
	L727.1,1506.9z M727.3,1502.9L727.3,1502.9L727.3,1502.9c-1.1,0-2-0.3-2.6-1c-0.6-0.6-0.9-1.5-0.9-2.6c0-1,0.4-1.8,1-2.5
	c0.6-0.6,1.5-0.9,2.5-0.9h0.1c1,0,1.8,0.4,2.5,1c0.6,0.6,0.9,1.5,0.9,2.5c0,1.1-0.4,1.9-1,2.5
	C729.1,1502.6,728.3,1502.9,727.3,1502.9z M727.2,1496.6c-0.9,0-1.5,0.2-2,0.7c-0.5,0.5-0.8,1.2-0.8,2c0,0.9,0.2,1.6,0.7,2.1
	c0.5,0.5,1.2,0.8,2.1,0.8h0.1c0.8,0,1.5-0.2,2-0.7c0.5-0.5,0.8-1.2,0.8-2.1c0-0.9-0.2-1.5-0.7-2.1
	C728.9,1496.9,728.2,1496.6,727.2,1496.6L727.2,1496.6z"/>
<path fill="#C20B19" d="M751.9,1519.2c0.1-1.7,0.1-3.5,0.2-5.2c-3.6-0.1-7.2-0.3-10.7-0.4c0-1.5,0.1-2.9,0.1-4.4
	c4-5.4,8-10.8,12-16.2c1.4,0.1,2.9,0.1,4.3,0.2c-0.2,5.5-0.4,11-0.7,16.5c1.1,0,2.2,0.1,3.3,0.1c-0.1,1.5-0.1,2.9-0.2,4.4
	c-1.1,0-2.2-0.1-3.3-0.1c-0.1,1.7-0.1,3.5-0.2,5.2C755.1,1519.3,753.5,1519.2,751.9,1519.2z M752.3,1509.5c0.1-3,0.2-5.9,0.3-8.9
	c-2.1,2.9-4.3,5.8-6.4,8.7C748.2,1509.4,750.2,1509.5,752.3,1509.5z"/>
<path fill="#C20B19" d="M757.1,1519.7l-0.3,0c-1.6-0.1-3.2-0.1-4.8-0.2l-0.3,0l0.2-5.2c-3.5-0.1-6.9-0.2-10.4-0.3l-0.3,0l0.1-4.8
	l0.1-0.1c4-5.5,8.1-10.9,12-16.2l0.1-0.1l0.2,0c1.4,0.1,2.9,0.1,4.3,0.2l0.3,0l-0.7,16.5l3.3,0.1l-0.2,5l-0.3,0c-1,0-2-0.1-2.9-0.1
	L757.1,1519.7z M752.2,1518.9c1.4,0.1,2.8,0.1,4.2,0.2l0.2-5.2l0.3,0c1,0,2,0.1,3,0.1l0.2-3.8l-3.3-0.1l0.7-16.5
	c-1.3-0.1-2.5-0.1-3.8-0.1c-3.9,5.2-7.9,10.6-11.9,16l-0.1,4c3.5,0.1,6.9,0.2,10.4,0.3l0.3,0L752.2,1518.9z M752.6,1509.9l-0.3,0
	c-2-0.1-4-0.1-6-0.2l-0.6,0l0.3-0.5c2.1-2.9,4.2-5.8,6.4-8.7l0.6-0.8L752.6,1509.9z M746.8,1509c1.7,0.1,3.4,0.1,5.2,0.2l0.3-7.6
	C750.4,1504.1,748.6,1506.6,746.8,1509z"/>
<path fill="#C20B19" d="M778.5,1520.4c-1.7-0.1-3.3-0.2-5-0.3c0.3-6.3,0.7-12.5,1-18.8c-2,1.6-4.2,2.8-6.8,3.4
	c0.1-1.5,0.2-3,0.2-4.5c1.3-0.4,2.8-1.1,4.4-2.2c1.6-1.1,2.8-2.4,3.4-4c1.4,0.1,2.8,0.2,4.1,0.2C779.5,1503,779,1511.7,778.5,1520.4
	z"/>
<path fill="#C20B19" d="M778.8,1520.7l-0.3,0c-1.7-0.1-3.3-0.2-5-0.3l-0.3,0l1-18.4c-1.8,1.4-4,2.4-6.3,3.1l-0.4,0.1l0.3-5.2
	l0.2-0.1c1.3-0.3,2.8-1.1,4.3-2.2c1.6-1.1,2.7-2.4,3.3-3.9l0.1-0.2l0.3,0c1.3,0.1,2.7,0.1,4.1,0.2l0.3,0l0,0.3L778.8,1520.7z
	 M773.8,1519.9c1.5,0.1,2.9,0.2,4.4,0.2l1.5-25.5c-1.2-0.1-2.4-0.1-3.6-0.2c-0.7,1.5-1.9,2.8-3.5,3.9c-1.6,1.1-3,1.8-4.3,2.2
	l-0.2,3.9c2.3-0.7,4.4-1.8,6.2-3.3l0.5-0.4L773.8,1519.9z"/>
<path fill-rule="evenodd" clip-rule="evenodd" fill="#C20B19" d="M585.1,1154.1c1.4-1.8,2.4-3.8,2.9-5.9
	C587.1,1150.2,586.2,1152.2,585.1,1154.1z"/>
<path fill-rule="evenodd" clip-rule="evenodd" fill="#C20B19" d="M517.5,560.1c-0.5,0-1.1,0.1-1.7,0.4c-0.2,0.2-0.4,0.3-0.6,0.4
	c0,0,0.1,0,0.1-0.1C516,560.5,516.8,560.3,517.5,560.1z"/>
<path fill-rule="evenodd" clip-rule="evenodd" fill="#C20B19" d="M785.4,1205c4-0.4,6.9-3.6,10.6-4.8c1-1.1,1.1-2.2,0.2-3.4
	c-4.5,0.4-9.3-0.3-12,4.6C784.5,1202.6,786.9,1203.1,785.4,1205z"/>
<path fill-rule="evenodd" clip-rule="evenodd" fill="#C20B19" d="M803.3,1195.8c-1.5-0.1-2.4-0.6-2.6-2.2c-2.8-0.9-4.5,0.2-4.7,3.1
	c0,1.2,0,2.3,0,3.5C797.9,1197.9,802,1199.1,803.3,1195.8z"/>
<path fill-rule="evenodd" clip-rule="evenodd" fill="#C20B19" d="M727.5,359.8c-0.2-1.4-0.3-3.2-1.9-4.1c-1.5,2-0.9,4.2-0.3,6.1
	c4,12,4.3,24.3,4,36.7c-0.1,3.9-0.1,7.8,0,11.7c0.1-2.4,0.3-4.7,0.5-7.1C731.4,388.6,730.4,374.1,727.5,359.8z"/>
<path fill-rule="evenodd" clip-rule="evenodd" fill="#C20B19" d="M729.6,420.3c-0.1-3.3-0.3-6.7-0.3-10
	C729.1,413.6,729.2,416.9,729.6,420.3z"/>
<path fill-rule="evenodd" clip-rule="evenodd" fill="#C20B19" d="M545.2,641.9c0.2-0.2,0.4-0.5,0.6-0.7c-0.3,0.2-0.6,0.4-0.9,0.5
	C545,641.7,545.1,641.8,545.2,641.9z"/>
<path fill-rule="evenodd" clip-rule="evenodd" fill="#C20B19" d="M545.9,641.1C545.9,641.1,545.9,641.1,545.9,641.1
	C545.8,641.1,545.8,641.1,545.9,641.1C545.8,641.1,545.9,641.1,545.9,641.1z"/>
<path fill-rule="evenodd" clip-rule="evenodd" fill="#C20B19" d="M533.1,627.6c0.2-0.1,0.4-0.2,0.7-0.5c-0.3,0.2-0.5,0.3-0.7,0.3
	C533.1,627.6,533.1,627.6,533.1,627.6z"/>
<path fill-rule="evenodd" clip-rule="evenodd" fill="#C20B19" d="M533.8,627.2c0.1-0.1,0.2-0.2,0.3-0.2c0,0,0,0,0,0c0,0,0,0,0,0
	C534,627,533.9,627.1,533.8,627.2z"/>
<path fill-rule="evenodd" clip-rule="evenodd" fill="#C20B19" d="M732.1,461.8c0,0.8,0,1.6,0,2.4c-3.1,0.7-2.3,3.3-2.1,5.1
	c0.3,2.7,0.3,5.3-0.2,7.9c-2-1.7-1-4-1.1-6c-0.1-12,0.5-24-0.1-35.9c-1.1-16.8-0.4-33.7-1.3-50.4c-0.5-7.3,0.2-15.1-3.7-22.1
	c-2-3.5-0.5-7.6-0.6-11.7c3.6,0.2,5.2,2.3,5.8,5.4c3.3,16,4.9,32.1,2.6,48.5c-0.9,6.2-1.2,12.8,0.7,19.2c-1.6,7.9-0.8,15.9-0.8,23.9
	C731.2,452.5,730.2,457.3,732.1,461.8z"/>
<path fill-rule="evenodd" clip-rule="evenodd" fill="#C20B19" d="M513,563.3c-1.3,0-2.1-0.6-3.8-0.1c-3,0.9,3.7-2.5,6.1-2.1
	c0,0-0.1-0.1-0.1-0.1C514.9,562.1,514,562.8,513,563.3z"/>
<path fill-rule="evenodd" clip-rule="evenodd" fill="#C20B19" d="M848.1,571.4c1.8,2.4,1.8,4.9,0,7.3
	C848.1,576.3,848.1,573.8,848.1,571.4z"/>
<path fill-rule="evenodd" clip-rule="evenodd" fill="#C20B19" d="M877.5,712c-2.4,1.8-4.9,1.7-7.3,0C872.6,712,875.1,712,877.5,712z
	"/>
<path fill-rule="evenodd" clip-rule="evenodd" fill="#C20B19" d="M583.5,1155.7c-2.1,0.4-2.4-2.5-4.4-2.3
	C580,1155.1,579.9,1158.8,583.5,1155.7z"/>
<path fill-rule="evenodd" clip-rule="evenodd" fill="#C20B19" d="M583.6,751.8c-0.1-1.5-0.9-2.1-2.4-2.2c-0.4-0.3-0.5-0.7-0.3-1.2
	c0.4-0.5,1.1-0.8,1.7-1.1c1.9-0.1,3.7-0.6,5.8,0.5C587.5,750.2,585.4,750.9,583.6,751.8z"/>
<path fill-rule="evenodd" clip-rule="evenodd" fill="#C20B19" d="M582.6,747.4c-0.4,0.5-0.8,0.9-1.3,1.3c-2.4,0.4-4.7,0.7-7.1-0.2
	c0.9-1.9,2.6-2.4,4.4-2.7C579.5,747.7,581.2,747.3,582.6,747.4z"/>
<path fill-rule="evenodd" clip-rule="evenodd" fill="#C20B19" d="M573.1,770.8c1.2,0.9,1.6,2.9,3.6,2.5c-0.6,1.5-2.6,2.2-3.2,1.8
	C572.2,774.1,572.9,772.3,573.1,770.8z"/>
<path fill-rule="evenodd" clip-rule="evenodd" fill="#C20B19" d="M609.6,729.8c0-2,0-3.9-0.1-5.9
	C611.8,725.8,611.3,727.8,609.6,729.8z"/>
<path fill-rule="evenodd" clip-rule="evenodd" fill="#C20B19" d="M732.1,461.8c-1.7-0.3-2.2-1.4-2.2-2.9c0-10.8,0-21.7,0-32.5
	c0-1.4,0.8-2.1,2.1-2.3C732.1,436.6,732.1,449.2,732.1,461.8z"/>
<path fill-rule="evenodd" clip-rule="evenodd" fill="#C20B19" d="M797.5,1029.5c3.9-0.1,6-0.9,8.2-1.5c6.1-1.5,11.2-5.2,16.2-8.8
	c1.3-1,2.7-2.8,2.2-4.5c-0.7-2.3-3.1-1.8-5-1.9c-5.2-0.2-9.5,2.6-14.2,4.2c-4.9,1.6-6.4,5.3-8.4,8.9
	C795.1,1028.4,796.4,1029.6,797.5,1029.5z"/>
<path fill-rule="evenodd" clip-rule="evenodd" fill="#C20B19" d="M761.1,1130.3c1.7-2.5,2.5-4.4,0.7-6.6c-2-2.3-4,0-5.6,0.6
	c-9.1,4.4-14.8,11.7-18.1,23C747.6,1142.7,755.6,1138.4,761.1,1130.3z"/>
<path fill-rule="evenodd" clip-rule="evenodd" fill="#C20B19" d="M730.2,1115.6c1.7-2.5,2.5-4.4,0.7-6.6c-2-2.3-4,0-5.6,0.6
	c-9.1,4.4-14.8,11.8-18.1,23.1C716.8,1128,724.8,1123.7,730.2,1115.6z"/>
<path fill-rule="evenodd" clip-rule="evenodd" fill="#C20B19" d="M820.9,1102.4c9.8-0.9,17.3-7.5,19.7-17.2
	c-9.2-1.1-19.2,4.3-22.9,12.7c-0.6,1.3-0.9,2.9,0.1,3.9C818.3,1102.4,819.8,1102.5,820.9,1102.4z"/>
<path fill-rule="evenodd" clip-rule="evenodd" fill="#C20B19" d="M678.5,1093.7c9.8-0.9,17.3-7.4,19.7-17.2
	c-9.2-1.1-19.2,4.3-22.9,12.7c-0.6,1.3-0.9,2.9,0.1,3.9C676,1093.8,677.5,1093.9,678.5,1093.7z"/>
<path fill-rule="evenodd" clip-rule="evenodd" fill="#C20B19" d="M652,1116.6c9.8-0.9,17.3-7.5,19.7-17.2
	c-9.2-1.1-19.2,4.3-22.9,12.7c-0.6,1.3-0.9,2.9,0.1,3.9C649.4,1116.6,650.9,1116.7,652,1116.6z"/>
<path fill-rule="evenodd" clip-rule="evenodd" fill="#C20B19" d="M643.4,1138.9c9.8-0.9,17.3-7.5,19.7-17.2
	c-9.2-1.1-19.2,4.3-22.9,12.7c-0.6,1.3-0.9,2.9,0.1,3.9C640.9,1138.9,642.3,1139,643.4,1138.9z"/>
<path fill-rule="evenodd" clip-rule="evenodd" fill="#C20B19" d="M620.4,1138.9c9.8-0.9,17.3-7.5,19.7-17.2
	c-9.2-1.1-19.2,4.3-22.9,12.7c-0.6,1.3-0.9,2.9,0.1,3.9C617.9,1138.9,619.3,1139,620.4,1138.9z"/>
<path fill-rule="evenodd" clip-rule="evenodd" fill="#C20B19" d="M603,1162c9.8-0.9,17.3-7.4,19.7-17.2c-9.2-1.1-19.2,4.3-22.9,12.7
	c-0.6,1.3-0.9,2.9,0.1,3.9C600.4,1162,601.9,1162.1,603,1162z"/>
<path fill-rule="evenodd" clip-rule="evenodd" fill="#C20B19" d="M830.5,1075.4c9.8-0.9,17.3-7.5,19.7-17.2
	c-9.2-1.1-19.2,4.3-22.9,12.7c-0.6,1.3-0.9,2.9,0.1,3.9C827.9,1075.5,829.4,1075.5,830.5,1075.4z"/>
<path fill-rule="evenodd" clip-rule="evenodd" fill="#C20B19" d="M847.8,1028.3c9.8-0.9,17.3-7.5,19.7-17.2
	c-9.2-1.1-19.2,4.3-22.9,12.7c-0.6,1.3-0.9,2.9,0.1,3.9C845.2,1028.3,846.7,1028.4,847.8,1028.3z"/>
<path fill-rule="evenodd" clip-rule="evenodd" fill="#C20B19" d="M807,1055.4c9.8-0.9,17.3-7.4,19.7-17.2
	c-9.2-1.1-19.2,4.3-22.9,12.7c-0.6,1.3-0.9,2.9,0.1,3.9C804.5,1055.5,806,1055.5,807,1055.4z"/>
<path fill-rule="evenodd" clip-rule="evenodd" fill="#C20B19" d="M802.1,1094.3c9.8-0.9,17.3-7.5,19.7-17.2
	c-9.2-1.1-19.2,4.3-22.9,12.7c-0.6,1.3-0.9,2.9,0.1,3.9C799.5,1094.3,801,1094.4,802.1,1094.3z"/>
<path fill-rule="evenodd" clip-rule="evenodd" fill="#C20B19" d="M697,1120.7c9.8-0.9,17.3-7.4,19.7-17.1
	c-9.2-1.1-19.2,4.3-22.9,12.6c-0.6,1.3-0.9,2.9,0.1,3.9C694.5,1120.7,696,1120.8,697,1120.7z"/>
<path fill-rule="evenodd" clip-rule="evenodd" fill="#C20B19" d="M773.6,1079.6c9.8-0.9,17.3-7.5,19.7-17.2
	c-9.2-1.1-19.2,4.3-22.9,12.7c-0.6,1.3-0.9,2.9,0.1,3.9C771.1,1079.6,772.6,1079.7,773.6,1079.6z"/>
<path fill-rule="evenodd" clip-rule="evenodd" fill="#C20B19" d="M736.8,1066.8c9.8-0.9,17.3-7.4,19.7-17.2
	c-9.2-1.1-19.2,4.3-22.9,12.7c-0.6,1.3-0.9,2.9,0.1,3.9C734.2,1066.8,735.7,1066.9,736.8,1066.8z"/>
<path fill-rule="evenodd" clip-rule="evenodd" fill="#C20B19" d="M756.1,1070.9c9.8-0.9,17.3-7.4,19.7-17.2
	c-9.2-1.1-19.2,4.3-22.9,12.6c-0.6,1.3-0.9,2.9,0.1,3.9C753.5,1070.9,755,1071,756.1,1070.9z"/>
<path fill-rule="evenodd" clip-rule="evenodd" fill="#C20B19" d="M763,1046.8c9.8-0.9,17.3-7.5,19.7-17.2
	c-9.2-1.1-19.2,4.3-22.9,12.7c-0.6,1.3-0.9,2.9,0.1,3.9C760.5,1046.8,762,1046.9,763,1046.8z"/>
<path fill-rule="evenodd" clip-rule="evenodd" fill="#C20B19" d="M785.4,1019.6c9.8-0.9,17.3-7.4,19.7-17.2
	c-9.2-1.1-19.2,4.3-22.9,12.7c-0.6,1.3-0.9,2.9,0.1,3.9C782.8,1019.7,784.3,1019.8,785.4,1019.6z"/>
<path fill-rule="evenodd" clip-rule="evenodd" fill="#C20B19" d="M814.8,1007.3c9.8-0.9,17.3-7.4,19.7-17.1
	c-9.2-1.1-19.2,4.3-22.9,12.6c-0.6,1.3-0.9,2.9,0.1,3.9C812.3,1007.3,813.7,1007.4,814.8,1007.3z"/>
<path fill-rule="evenodd" clip-rule="evenodd" fill="#C20B19" d="M734.3,1042.8c-10.5-1-18.2,6.2-24.7,24.1
	C720.6,1060.5,731,1055.5,734.3,1042.8z"/>
<path fill-rule="evenodd" clip-rule="evenodd" fill="#C20B19" d="M875.9,983.6c-23.2-0.2-16.9-3.1-24,11.4
	C872.8,995.5,872.9,995.4,875.9,983.6z"/>
<path fill-rule="evenodd" clip-rule="evenodd" fill="#C20B19" d="M672.2,1118c5.6-2.7,11.3-5,16.7-8c3.8-2.1,6.5-5.5,7.8-9.7
	c0.3-0.8,1.5-4.6-1.8-3.2c-9.3,3.8-19,7.3-24.1,17.1C670.5,1115.7,669.3,1117.6,672.2,1118z"/>
<path fill-rule="evenodd" clip-rule="evenodd" fill="#C20B19" d="M618.5,1169.3c0.2-0.2,0.3-0.4,0.4-0.5c9.1-5.2,13.9-13.6,17.3-23
	c0.8-2.2-0.5-3.4-3.1-2.5c-7.1,2.3-16.9,16.4-16.5,23.6C616.8,1168.1,617.1,1169.1,618.5,1169.3z"/>
<path fill-rule="evenodd" clip-rule="evenodd" fill="#C20B19" d="M672.5,1179.4c7.6-4.9,8.8-6.4,7.2-15.8
	c-8.4,3.8-17.5,6.4-18.3,17.8c-0.4,1.6-1.1,3.3,0.5,4.6C665.2,1183.8,668.9,1181.7,672.5,1179.4z"/>
<path fill-rule="evenodd" clip-rule="evenodd" fill="#C20B19" d="M782.9,1050.4c4.7,0.3,19.4-8.2,21.5-12.1c0.8-1.4,1.6-2.8,0.6-4.2
	c-1.3-1.8-3.2-1.6-4.8-1c-3.7,1.4-7.6,2.7-10.9,4.9c-3.2,2.1-6.2,4.8-7.3,8.7C781.6,1048,781,1050,782.9,1050.4z"/>
<path fill-rule="evenodd" clip-rule="evenodd" fill="#C20B19" d="M851.2,1002.5c-13.8-0.9-19.9,2.6-22.4,12.4
	C847,1015.5,847.2,1015.9,851.2,1002.5z"/>
<path fill-rule="evenodd" clip-rule="evenodd" fill="#C20B19" d="M745.6,1102.3c4.1-2.4,8.4-4.9,11.8-8.2c2.6-2.4,3.9-6.3,5.7-9.2
	c-0.2-3.8-3.3-2.8-4.2-2.2c-7.2,3.8-14.6,7.4-17.5,16c-0.6,1.7-1.1,2.8,0.3,4.2C743,1104.2,744.7,1102.8,745.6,1102.3z"/>
<path fill-rule="evenodd" clip-rule="evenodd" fill="#C20B19" d="M708.6,1088.3c9.8-0.3,20-12.5,18.4-22.9
	c-8.4,5.6-15.6,11.7-20.1,20.6C705.7,1088,707,1088.4,708.6,1088.3z"/>
<path fill-rule="evenodd" clip-rule="evenodd" fill="#C20B19" d="M751.9,1176.9c8.5-0.4,18.4-11.9,17.8-21.1
	c-10.7,2.1-15.9,9.4-19.2,18.6C749.8,1176.4,749.9,1176.9,751.9,1176.9z"/>
<path fill-rule="evenodd" clip-rule="evenodd" fill="#C20B19" d="M682.5,1155.6c9.1-1.7,16.3-11.7,15.1-20.8
	c-9,2.7-15.6,9.5-18,17.3C678.6,1155.3,679.7,1156.1,682.5,1155.6z"/>
<path fill-rule="evenodd" clip-rule="evenodd" fill="#C20B19" d="M701.7,1156.1c4-2.5,8.4-4.5,11.9-7.5c2.7-2.1,6.6-4.1,5.8-8.2
	c-0.3-2.2,0.4-4.4-1.4-5.3c-0.7-0.3-2.4,0.1-3,0.8c-5.5,5.5-12.9,9.3-16.1,17.1c-0.5,1.2-1.2,2.2-0.3,3.2
	C699.4,1157.3,700.5,1156.8,701.7,1156.1z"/>
<path fill-rule="evenodd" clip-rule="evenodd" fill="#C20B19" d="M668.8,1143.9c8.2-0.2,16.8-10.3,15.7-19c-2.3-0.2-4,1.8-5.4,2.7
	c-4.9,3-10.8,5.3-13.3,11.3C664.4,1142.2,664.6,1144,668.8,1143.9z"/>
<path fill-rule="evenodd" clip-rule="evenodd" fill="#C20B19" d="M746,1078.7c0.9-1.5,0.9-3.6,0.1-5.1c-0.8-1.5-2.9-1-4.4-0.6
	c-6.4,1.6-14.6,14.4-13.6,21.4C735.5,1090.6,741.6,1085.6,746,1078.7z"/>
<path fill-rule="evenodd" clip-rule="evenodd" fill="#C20B19" d="M800.1,1138.1c0.5-1.1,1.1-2.3,0.3-3.2c-0.9-1.1-2.1-0.5-3.2,0
	c-8.3,3.9-16.7,7.8-17.4,19.2C789.4,1152.1,796,1146.6,800.1,1138.1z"/>
<path fill-rule="evenodd" clip-rule="evenodd" fill="#C20B19" d="M739.3,1129.5c7.9-3.6,12.2-11,11.5-18.9c-6.1,3.5-11.7,7-15.7,13
	c-1.8,2.8-4.6,6.2-2.9,8.4C734.4,1134.9,737,1130.5,739.3,1129.5z"/>
<path fill-rule="evenodd" clip-rule="evenodd" fill="#C20B19" d="M769.1,1022.9c1.1-1.5,1.4-3,0.7-4.3c-0.8-1.7-2.6-1-4.1-0.5
	c-8.8,2.9-14.2,9-17.1,18.4C757.6,1034.2,764,1029.7,769.1,1022.9z"/>
<path fill-rule="evenodd" clip-rule="evenodd" fill="#C20B19" d="M777.1,1129.8c-9.7,3.8-15.3,11.7-19.8,20.9
	c7.5-2.5,14.4-6.1,20.2-11.7C777.7,1135.9,778.1,1132.8,777.1,1129.8z"/>
<path fill-rule="evenodd" clip-rule="evenodd" fill="#C20B19" d="M727,1151c-14.1,4.9-19.7,11.2-19.2,21.9
	C727.4,1157.9,727.7,1157.4,727,1151z"/>
<path fill-rule="evenodd" clip-rule="evenodd" fill="#C20B19" d="M811.3,1066.2c1.2-1.8,1.6-3.3,0.8-4.4c-0.9-1.4-2.8-0.6-4.3,0
	c-8.3,3.4-13.7,9.2-16.5,19.3C799.8,1077,806.6,1073.2,811.3,1066.2z"/>
<path fill-rule="evenodd" clip-rule="evenodd" fill="#C20B19" d="M643.3,1181.4c1,0.5,2.3,0.2,3.2-0.8c2.5-2.7,5.5-4.8,8.1-7.4
	c2.7-2.8,4.9-6.4,5.7-10.2c0-1.2,0.2-2.4-1.1-2.7c-1.8-0.4-3.5-0.2-4.7,1.5c-1.7,2.3-3,5.3-5.7,6.5c-4.4,1.9-4.8,6.2-6.1,9.8
	C642.4,1179.2,642.1,1180.8,643.3,1181.4z"/>
<path fill-rule="evenodd" clip-rule="evenodd" fill="#C20B19" d="M845,1040.2c-10.2,2.9-14.4,6.6-16.8,14.8
	C839.9,1056,846.5,1050.2,845,1040.2z"/>
<path fill-rule="evenodd" clip-rule="evenodd" fill="#C20B19" d="M643.1,1162.8c3.6-3.1,8.9-4.5,10.7-9.5c0.7-1.9,2.5-4.9-1.9-4.8
	c-6.9,0.1-14.3,9.5-13.3,16.8C640.2,1164.5,641.8,1163.9,643.1,1162.8z"/>
<path fill-rule="evenodd" clip-rule="evenodd" fill="#C20B19" d="M777.1,1129.8c0.2,3,0.2,6.1,0.3,9.2
	C778.8,1135.9,779.3,1132.8,777.1,1129.8z"/>
<path fill-rule="evenodd" clip-rule="evenodd" fill="#C20B19" d="M661.8,1186.2c-0.2-1.5-0.3-3.1-0.5-4.6
	C660.1,1183.2,658.8,1184.9,661.8,1186.2z"/>
<path fill-rule="evenodd" clip-rule="evenodd" fill="#C20B19" d="M902.5,807.2c-4.2,3.3-8.3,6.4-13,8.7c-3.1,1.6-6.2,1.8-8.5-1.5
	c-2.2-5.7-1.2-8.3,4.2-10.5c6.6-2.8,13.5-4.6,19.4-9.6c7.5-6.2,10.4-14.3,13-22.8c0.9-2.6,1.7-5.1,2.2-7.7c0.4-1.6,0.9-2.6,2.6-2.2
	c1.7,0.4,1.1,1.8,1.1,2.9C923.5,766.6,919.6,789.4,902.5,807.2z"/>
<path fill-rule="evenodd" clip-rule="evenodd" fill="#C20B19" d="M687.4,658.7c0.1,1.2,0,2.4-1.2,3.1c-1.3,0.8-2.6,0.8-3.7-0.3
	c-2.1-2-4.5-3.9-6.2-6.3c-5.8-7.6-13.9-10.7-22.8-13.1c-9.5-2.5-19.6-4.5-26.8-12.4c-1.1-1.2-2.5-1.8-1.5-3.5c1-1.9,2.7-2.2,4.5-1.1
	c11.4,7.1,24.5,9.8,37.1,13.5C672.8,640.5,687.2,654.2,687.4,658.7z"/>
<path fill-rule="evenodd" clip-rule="evenodd" fill="#C20B19" d="M574.3,748.5c2.4,0,4.7,0.1,7.1,0.2c0,0.3-0.1,0.6-0.1,0.9
	C578.9,749.3,576.3,750.7,574.3,748.5z"/>
<path fill-rule="evenodd" clip-rule="evenodd" fill="#C20B19" d="M618.5,693.2c-17.4-2.9-34.8-6.2-52.7-5
	c-6.8,0.5-13.2,2.2-19.7,4.1c-4.3,1.3-11,11.6-9.7,15.2c2.1,5.6,6.8,8.2,12.3,9c2.1,0.3,2.4,1.2,3.2,3c1.5,3.7,1.2,8.7,6.4,10.2
	c5.6,1.6,8.8,8.4,6.8,14.1c-1.4,4.1-1.1,8.7,1.6,11.6c2.6,2.8,2.9,5.9,4.2,8.9c0.9,2.2-0.1,4.8,2,6.5c0.8,1.4,0.7,4.1,3.6,2.5
	c5-4.1,6.9-9.1,5-15.6c-0.6-2-2.2-5,1.8-5.8c1.2-1.9-0.1-2.6-1.5-3.2c-1.4-0.3-2.9,0-4.4-0.5c0-0.9,0.8-1.5,1.1-2.3
	c2.2-1.1,4.4-2.1,6.5-3.3c8-4.5,17.9-5.4,24.4-12.8c0.7-2,0.8-3.9-0.1-5.9c-6.2-3-11.4-7.5-17.9-10.4c-8.8-4-17.4-6.3-26.8-6.2
	c-1.6,0-3.3,0.3-4.7-0.1c-2.7-0.8-5.8-2.4-5.7-5.2c0.1-2.4,3.1-4.1,5.9-4.1c19.1-0.1,38.1-0.2,57.2,0.1c2.4,0,4.7,1.3,5.2-2
	C623.2,692.6,620,693.4,618.5,693.2z M574.1,730.3c0,1.7-0.8,3.4-1.6,6.4c-3.4-2.2-6.8-3.2-7.8-5.3c-1.5-2.5-0.2-5.4,4.3-6.2
	C573.5,724.7,574.2,727.3,574.1,730.3z M595.5,729.7c0,0-5.2,9.5-20.6,8c0,0,1-8.5,0-13.2c0,0,8.1-2.3,15.9,1.6
	C598.6,729.9,595.5,729.7,595.5,729.7z M561.3,712.6c5.7-1.5,11.2,0.7,16.7,1.9c4.1,0.8,7.9,3.2,12.8,5.4c-7.5,3-13.8-0.8-20.1-0.7
	c-2.7,0-5.9-0.7-9-1c-1.4-0.1-3.5,0.8-3.9-1.8C557.5,713.6,559.7,713,561.3,712.6z"/>
<path fill="#C20B19" d="M701.9,1436.1c-139.6,0-270.8-73.2-369.3-206.1c-98.1-132.3-152.1-308.2-152.1-495.2
	c0-187,54-362.9,152.1-495.2C431.2,106.6,562.3,33.4,701.9,33.4c139.6,0,270.8,73.2,369.3,206.1c98.1,132.4,152.1,308.2,152.1,495.2
	c0,187-54,362.9-152.1,495.2C972.7,1362.9,841.6,1436.1,701.9,1436.1z M701.9,45.8c-280.7,0-509,309.1-509,688.9
	c0,379.9,228.4,688.9,509,688.9c280.7,0,509-309.1,509-688.9C1211,354.8,982.6,45.8,701.9,45.8z"/>
<path fill="#C20B19" d="M700.9,1417c-134,0-259.8-71.2-354.3-200.5c-94.1-128.7-145.9-299.8-145.9-481.7
	c0-181.9,51.8-352.9,145.9-481.7C441.1,123.8,566.9,52.6,700.9,52.6c134,0,259.8,71.2,354.3,200.5
	c94.1,128.7,145.9,299.8,145.9,481.7c0,181.9-51.8,352.9-145.9,481.7C960.7,1345.8,834.9,1417,700.9,1417z M700.9,65
	c-269,0-487.8,300.5-487.8,669.8c0,369.3,218.8,669.8,487.8,669.8c268.9,0,487.7-300.5,487.7-669.8C1188.7,365.5,969.9,65,700.9,65z
	"/>
<path fill="#C20B19" d="M706.3,1281.9c-102,0-197.8-57.7-269.6-162.3c-71.3-104-110.6-242.1-110.6-389c0-146.8,39.3-285,110.6-389
	c71.8-104.7,167.6-162.4,269.6-162.4c102,0,197.8,57.7,269.6,162.4c71.3,104,110.6,242.1,110.6,389c0,146.8-39.3,285-110.6,389
	C904,1224.2,808.3,1281.9,706.3,1281.9z M706.3,191.7c-202.8,0-367.8,241.8-367.8,538.9c0,297.2,165,538.9,367.8,538.9
	c202.8,0,367.8-241.8,367.8-538.9C1074.1,433.4,909.1,191.7,706.3,191.7z"/>
<path fill="#C20B19" d="M334.4,1079.7l1.8,15.6c-8.5,1.3-15.7,0.4-21.6-2.8c-5.9-3.2-10.5-8.5-13.8-16c-4.2-9.2-4.4-18.3-0.8-27
	c3.6-8.8,10.9-15.6,21.9-20.5c11.6-5.2,21.9-6.2,31-3.1c9.1,3.1,15.8,9.5,20.2,19.3c3.8,8.5,4.4,16.6,1.8,24.1
	c-1.6,4.5-4.8,8.8-9.6,12.9l-9.6-12.4c3.2-2.4,5.3-5.4,6.2-9c0.9-3.5,0.5-7.2-1.1-10.9c-2.3-5.2-6-8.5-11.2-10.1
	c-5.1-1.6-11.9-0.5-20.2,3.3c-8.8,3.9-14.4,8.3-16.7,13.2c-2.3,4.8-2.3,9.8-0.1,14.9c1.7,3.7,4.3,6.4,7.9,8
	C324.2,1080.6,328.8,1080.8,334.4,1079.7z"/>
<path fill="#C20B19" d="M327.4,1128l65.2-39.6l29.4,48.3l-11,6.7l-21.4-35.2l-14.5,8.8l19.9,32.7l-11,6.7l-19.9-32.7l-17.7,10.8
	l22.1,36.4l-11,6.7L327.4,1128z"/>
<path fill="#C20B19" d="M372.9,1199.7l59.2-48.2l9.5,11.6l-19.8,56.4l39.5-32.2l9,11.1l-59.2,48.2l-9.8-12l19.2-55.3l-38.6,31.4
	L372.9,1199.7z"/>
<path fill="#C20B19" d="M445.2,1280.2l42.5-47l-16.8-15.2l8.7-9.6l45,40.7l-8.7,9.6l-16.7-15.2l-42.5,47L445.2,1280.2z"/>
<path fill="#C20B19" d="M493.8,1321.4l40.2-64.9l27.6,17.1c6.9,4.3,11.6,8,14,11.1c2.4,3.1,3.7,6.7,3.7,10.9c0,4.2-1.1,8.1-3.5,12
	c-3,4.9-6.9,8-11.8,9.4c-4.8,1.4-10.3,0.8-16.5-2c1.8,3.4,3,6.7,3.6,9.8c0.6,3.1,0.9,8.2,0.9,15.2l0.1,17.6l-15.7-9.7l-0.7-20
	c-0.2-7.1-0.6-11.7-1-13.8c-0.4-2.1-1.2-3.8-2.3-5.1c-1.1-1.3-3.1-2.9-6.1-4.8l-2.7-1.6l-16.8,27.1L493.8,1321.4z M530.1,1292.1
	l9.7,6c6.3,3.9,10.4,6.1,12.3,6.5c1.9,0.4,3.7,0.3,5.4-0.5c1.7-0.7,3.1-2.1,4.3-4c1.3-2.2,1.9-4.3,1.5-6.4c-0.3-2.1-1.5-3.9-3.4-5.6
	c-1-0.8-4.1-2.9-9.4-6.1l-10.2-6.3L530.1,1292.1z"/>
<path fill="#C20B19" d="M585.6,1332.1c2.3-7.4,5.4-13.3,9.2-17.6c2.8-3.2,6.1-5.8,9.9-7.9c3.8-2,7.6-3.2,11.5-3.6
	c5.1-0.5,10.7,0.2,16.6,2c10.7,3.4,18.3,9.4,22.6,18.1c4.4,8.7,4.7,18.9,0.9,30.8c-3.7,11.8-9.8,19.9-18.2,24.6
	c-8.5,4.6-18.1,5.3-28.8,1.9c-10.8-3.4-18.4-9.4-22.7-18C582.3,1353.7,581.9,1343.6,585.6,1332.1z M600.9,1336.3
	c-2.6,8.2-2.7,15.1-0.2,20.5c2.5,5.5,6.6,9.1,12.5,10.9c5.9,1.8,11.3,1.2,16.4-1.8c5.1-3,8.9-8.8,11.6-17.2
	c2.6-8.3,2.7-15.1,0.4-20.4c-2.4-5.3-6.6-8.8-12.6-10.7c-6.1-1.9-11.6-1.4-16.6,1.6C607.3,1322.3,603.5,1327.9,600.9,1336.3z"/>
<path fill="#C20B19" d="M785.7,1387.4l-16.6,2.1l-8.8-16.4l-30.3,3.8l-4.1,18l-16.2,2l20-79.4l16.2-2L785.7,1387.4z M753.8,1361
	l-13.9-26.8l-6.7,29.4L753.8,1361z"/>
<path fill="#C20B19" d="M814.5,1378.6l-31.8-69.3l21-9.6l34.3,41.5l-9.3-53l21-9.6l31.8,69.4l-13,6l-25.1-54.6l11.3,60.9l-13.5,6.2
	l-38.8-48.3l25.1,54.6L814.5,1378.6z"/>
<path fill="#C20B19" d="M909.5,1329l-47.3-59.9l44.4-35l8,10.1l-32.3,25.5l10.5,13.3l30.1-23.7l8,10.1l-30.1,23.7l12.9,16.3
	l33.5-26.4l8,10.1L909.5,1329z"/>
<path fill="#C20B19" d="M975.9,1273.1l-57.1-50.6l21.5-24.3c5.4-6.1,9.8-10.1,13.3-11.9c3.5-1.9,7.3-2.4,11.4-1.8
	c4.1,0.7,7.8,2.5,11.2,5.5c4.3,3.8,6.7,8.2,7.3,13.2c0.6,5-1,10.3-4.7,16c3.7-1.2,7.1-1.8,10.3-1.9c3.2-0.1,8.2,0.5,15.1,1.7
	l17.3,2.9l-12.2,13.8l-19.8-2.7c-7.1-1-11.7-1.4-13.8-1.4c-2.1,0.1-3.9,0.5-5.5,1.4c-1.5,0.8-3.4,2.6-5.8,5.2l-2.1,2.3l23.8,21.1
	L975.9,1273.1z M953.2,1232.3l7.6-8.5c4.9-5.5,7.7-9.2,8.5-11c0.7-1.8,0.9-3.6,0.4-5.4c-0.4-1.8-1.5-3.4-3.2-5
	c-1.9-1.7-3.9-2.6-6-2.6c-2.1,0-4.1,0.8-6.1,2.4c-1,0.8-3.5,3.6-7.6,8.2l-8,9L953.2,1232.3z"/>
<path fill="#C20B19" d="M1032.7,1204.6l-62.4-43.9l8.9-12.6l62.4,43.9L1032.7,1204.6z"/>
<path fill="#C20B19" d="M1056.1,1113.8l11.4-10.7c6.1,6.1,9.7,12.4,10.6,19c0.9,6.6-0.6,13.5-4.6,20.6c-5,8.8-12.1,14.4-21.3,16.7
	c-9.2,2.3-19.1,0.5-29.6-5.4c-11.1-6.2-18.1-13.9-21-23.1c-2.9-9.2-1.8-18.4,3.5-27.7c4.6-8.1,10.7-13.4,18.4-15.8
	c4.5-1.4,9.9-1.4,16.1,0.1l-4.3,15.1c-3.9-1.1-7.5-1-10.9,0.3c-3.4,1.4-6.1,3.9-8.1,7.4c-2.8,4.9-3.2,9.9-1.4,15
	c1.8,5.1,6.7,9.8,14.6,14.3c8.4,4.7,15.3,6.6,20.5,5.6c5.3-1,9.3-4,12-8.8c2-3.6,2.6-7.3,1.8-11.1
	C1062.9,1121.5,1060.3,1117.6,1056.1,1113.8z"/>
<path fill="#C20B19" d="M1124.9,1026.8l-6.3,15.5l-18.6-0.3l-11.5,28.3l13.7,12.3l-6.1,15.1l-59.6-56.2l6.1-15.1L1124.9,1026.8z
	 M1086.3,1041.7l-30.2-0.9l22.4,20.2L1086.3,1041.7z"/>
<path fill="#C20B19" d="M243.2,782.2l-0.3-14.7l37.5-0.8c5.9-0.1,9.8-0.4,11.6-0.8c2.8-0.7,5.1-2.2,6.7-4.6c1.7-2.4,2.5-5.7,2.4-9.8
	c-0.1-4.2-1-7.3-2.6-9.4c-1.7-2.1-3.7-3.3-6.1-3.7c-2.4-0.4-6.3-0.5-11.8-0.4l-38.3,0.8l-0.3-14.7l36.3-0.8
	c8.3-0.2,14.2,0.1,17.6,0.8c3.4,0.7,6.4,2.1,8.8,4.2c2.4,2.1,4.3,4.9,5.8,8.5c1.5,3.5,2.3,8.2,2.4,14c0.1,7-0.5,12.2-2,15.9
	c-1.4,3.6-3.4,6.5-5.8,8.6c-2.4,2.1-4.9,3.6-7.6,4.3c-3.9,1-9.8,1.6-17.5,1.8L243.2,782.2z"/>
<path fill="#C20B19" d="M311.6,705.1l-69-5l1-14.3l48.2-26.4l-46.1-3.3l1-13.6l69,5l-1.1,14.7l-47.1,26.1l45,3.2L311.6,705.1z"/>
<path fill="#C20B19" d="M318.2,630.3l-68.5-9.6l2-14.6l68.5,9.6L318.2,630.3z"/>
<path fill="#C20B19" d="M326.2,581.4l-73,11.5l3.2-15.6l53.9-7.7l-46.6-27.8l3.2-15.3l62.5,39.5L326.2,581.4z"/>
<path fill="#C20B19" d="M337.2,531.5l-66.2-20.3l15.9-51.6l11.2,3.4l-11.5,37.6l14.7,4.5l10.7-35l11.1,3.4l-10.7,35l18,5.5
	l11.9-38.9l11.1,3.4L337.2,531.5z"/>
<path fill="#C20B19" d="M358.3,465.2L294.6,438l12.1-28.5c3-7.2,5.8-12.1,8.4-14.9c2.5-2.8,5.7-4.5,9.4-5.2
	c3.8-0.7,7.5-0.3,11.3,1.3c4.8,2,8.1,5.2,9.9,9.5c1.9,4.3,1.9,9.5,0.2,15.8c2.9-2.2,5.7-3.9,8.4-5c2.7-1.1,7.3-2.2,13.6-3.3
	l15.9-2.9l-6.9,16.2l-18,3.9c-6.4,1.4-10.6,2.4-12.4,3.1c-1.8,0.7-3.3,1.7-4.4,2.9c-1.1,1.2-2.3,3.4-3.6,6.5l-1.2,2.7l26.6,11.3
	L358.3,465.2z M327.3,436l4.3-10c2.8-6.5,4.2-10.7,4.4-12.5c0.2-1.8-0.2-3.5-1.1-4.9c-0.9-1.5-2.3-2.6-4.2-3.4c-2.1-0.9-4.1-1-6-0.4
	c-1.8,0.6-3.4,2-4.7,4c-0.6,1-2.1,4.3-4.4,9.8l-4.5,10.6L327.3,436z"/>
<path fill="#C20B19" d="M367.2,388.7l5.9-13.1c4.4,1.5,8.2,1.6,11.3,0.4c3.2-1.2,5.8-3.8,8.1-7.7c2.3-4.1,3.3-7.7,2.8-10.7
	c-0.5-3-1.8-5.2-4-6.4c-1.4-0.8-2.9-1.1-4.4-0.7c-1.5,0.3-3.2,1.4-5.2,3.1c-1.3,1.2-4.2,4.1-8.4,8.7c-5.5,5.9-10.2,9.6-14.1,11
	c-5.5,2-10.7,1.7-15.4-1c-3.1-1.7-5.4-4.3-7-7.6c-1.6-3.3-2.2-7.1-1.6-11.4c0.6-4.2,2.2-8.8,5-13.7c4.5-7.9,9.6-13,15.2-15.1
	c5.6-2.1,11.2-1.7,16.9,1.2l-6.7,13.1c-3.4-1.2-6.3-1.3-8.7-0.3c-2.4,1-4.6,3.4-6.6,6.9c-2.1,3.7-3,7-2.8,10c0.2,1.9,1,3.3,2.6,4.2
	c1.4,0.8,3,0.9,4.7,0.2c2.2-0.9,5.8-4,10.7-9.5c4.9-5.4,9-9.2,12.2-11.3c3.2-2.1,6.5-3.3,10.1-3.5c3.5-0.2,7.2,0.8,11,2.9
	c3.4,2,6.1,4.8,8,8.5c1.9,3.7,2.5,7.8,1.9,12.4c-0.6,4.5-2.5,9.5-5.6,15c-4.5,8-9.8,13.2-15.7,15.5C381,392,374.4,391.7,367.2,388.7
	z"/>
<path fill="#C20B19" d="M424.2,337.1l-57-39.3l8.3-12.1l57,39.3L424.2,337.1z"/>
<path fill="#C20B19" d="M388.4,267l17.4-20.5c3.9-4.6,7.3-7.9,10-9.7c3.7-2.5,7.7-3.9,12-4.2c4.3-0.3,8.7,0.3,13,2
	c4.4,1.7,9.1,4.6,14,8.8c4.3,3.7,7.6,7.4,9.8,11.2c2.7,4.7,4.1,9.3,4.3,13.9c0.1,3.5-0.7,7.3-2.5,11.4c-1.4,3.1-3.8,6.7-7.3,10.9
	l-17.9,21.1L388.4,267z M406.9,263.3l34.9,29.7l7.1-8.4c2.7-3.1,4.4-5.5,5.3-7.2c1.1-2.2,1.7-4.3,1.7-6.4c0-2.1-0.9-4.5-2.6-7.3
	c-1.7-2.8-4.6-5.9-8.7-9.3c-4.1-3.5-7.5-5.7-10.3-6.8c-2.8-1.1-5.4-1.5-7.8-1.2c-2.4,0.3-4.7,1.3-6.9,3.1c-1.7,1.3-4.4,4.2-8.3,8.8
	L406.9,263.3z"/>
<path fill="#C20B19" d="M540.3,213.6l-12.2,10.3l-15-7.9l-22.3,18.8l5.5,15.9l-11.9,10.1l-22.9-71.2l11.9-10L540.3,213.6z
	 M502,210.1L477.7,197l9,26L502,210.1z"/>
<path fill="#C20B19" d="M514,148.7l23.6-12.9c5.3-2.9,9.6-4.7,12.8-5.5c4.3-1,8.6-0.9,12.7,0.3c4.1,1.2,8,3.4,11.5,6.5
	c3.5,3.1,6.8,7.5,9.9,13.2c2.7,5,4.4,9.7,5.1,14c0.8,5.3,0.5,10.1-1,14.5c-1.1,3.3-3.2,6.6-6.4,9.8c-2.4,2.4-5.9,4.9-10.7,7.5
	l-24.3,13.3L514,148.7z M532.5,151.9l22,40.2l9.6-5.3c3.6-2,6.1-3.6,7.5-4.8c1.8-1.6,3.1-3.4,3.8-5.4c0.7-1.9,0.8-4.5,0.2-7.7
	c-0.6-3.2-2.2-7.1-4.8-11.8c-2.6-4.7-5-8.1-7.2-10.1c-2.2-2-4.5-3.3-6.9-3.9c-2.3-0.5-4.9-0.4-7.5,0.4c-2,0.6-5.6,2.3-10.9,5.2
	L532.5,151.9z"/>
<path fill="#C20B19" d="M630.2,98l26.6-4c6-0.9,10.6-1.2,13.9-0.8c4.4,0.5,8.3,2.1,11.8,4.7c3.5,2.6,6.3,5.9,8.6,10
	c2.2,4.1,3.8,9.4,4.8,15.8c0.9,5.6,0.9,10.6,0,14.9c-1,5.3-3,9.7-5.9,13.3c-2.2,2.7-5.3,5.1-9.4,7c-3.1,1.5-7.3,2.6-12.7,3.4
	l-27.4,4.1L630.2,98z M646.5,107.3l6.9,45.3l10.9-1.6c4.1-0.6,7-1.3,8.7-2c2.3-0.9,4.1-2.2,5.4-3.7c1.4-1.6,2.3-4,2.8-7.2
	c0.5-3.2,0.4-7.5-0.4-12.8c-0.8-5.3-1.9-9.3-3.3-12c-1.4-2.7-3.1-4.7-5.1-6c-2-1.3-4.4-2.1-7.2-2.2c-2.1-0.1-6.1,0.3-12,1.2
	L646.5,107.3z"/>
<path fill="#C20B19" d="M712.7,157.7l8.1-68.7l53.6,6.3l-1.4,11.6l-39-4.6l-1.8,15.2l36.3,4.3l-1.4,11.6l-36.3-4.3l-2.2,18.7
	l40.4,4.8l-1.4,11.6L712.7,157.7z"/>
<path fill="#C20B19" d="M807.9,177.1l30.6-62.1l48.4,23.9l-5.2,10.5L846.5,132l-6.8,13.8l32.8,16.2l-5.2,10.5l-32.8-16.2l-8.3,16.9
	l36.5,18l-5.2,10.5L807.9,177.1z"/>
<path fill="#C20B19" d="M868.6,209.1l41.2-54.9l11.8,8.8l-34.2,45.6l29.2,22l-7,9.3L868.6,209.1z"/>
<path fill="#C20B19" d="M953.2,250.4l10.3,10c-2.9,3.6-4.3,7.1-4.2,10.5c0.1,3.4,1.6,6.8,4.5,10.2c3.1,3.6,6.1,5.7,9.1,6.3
	c3,0.6,5.5,0,7.4-1.6c1.2-1.1,2-2.4,2.2-3.9c0.2-1.5-0.2-3.5-1.2-6c-0.7-1.7-2.5-5.3-5.4-10.9c-3.7-7.2-5.6-12.9-5.6-17.1
	c0-5.9,2.1-10.6,6.2-14.2c2.7-2.3,5.9-3.6,9.6-4c3.7-0.4,7.5,0.4,11.2,2.3c3.8,2,7.5,5.1,11.2,9.3c6,6.9,9,13.4,9.1,19.4
	c0.1,6-2.2,11.1-6.8,15.4l-10-10.8c2.3-2.8,3.4-5.5,3.2-8.1c-0.2-2.6-1.6-5.5-4.3-8.6c-2.8-3.2-5.6-5.2-8.4-6
	c-1.8-0.5-3.4-0.1-4.8,1c-1.2,1.1-1.8,2.5-1.8,4.4c0.1,2.4,1.8,6.8,5.3,13.3c3.4,6.5,5.6,11.6,6.5,15.3c0.9,3.7,0.9,7.3-0.1,10.7
	c-1,3.4-3.2,6.5-6.5,9.4c-3,2.6-6.6,4.1-10.7,4.6c-4.1,0.5-8.2-0.3-12.3-2.4c-4-2.1-8.1-5.6-12.2-10.4c-6-7-9.1-13.7-9.2-20.1
	C945.4,262.2,947.9,256.1,953.2,250.4z"/>
<path fill="#C20B19" d="M1018.3,376.1l-8.7-13.4l9.8-13.9l-15.8-24.5l-16.5,3.5l-8.5-13.1l73.5-13.7l8.4,13.1L1018.3,376.1z
	 M1026.6,338.5l16.1-22.3l-26.9,5.6L1026.6,338.5z"/>
<path fill="#C20B19" d="M1022.3,385l61.6-30.3l6.5,13.2l-51.1,25.2l16.1,32.8L1045,431L1022.3,385z"/>
<path fill="#C20B19" d="M1053.5,452.8l55.2-49.1l5.7,14.9l-41.2,35.6l54.2-1.7l5.6,14.6l-74,0.5L1053.5,452.8z"/>
<path fill="#C20B19" d="M1086.7,556.8l-4.3-15.4l13.4-10.4l-7.9-28l-16.8-1.5l-4.2-15l74.3,8.5l4.2,15L1086.7,556.8z M1105.7,523.3
	l22-16.6l-27.4-2.5L1105.7,523.3z"/>
<path fill="#C20B19" d="M1156.6,554.1l4.7,26.5c1.1,6,1.4,10.6,1.1,13.9c-0.4,4.4-1.9,8.4-4.4,11.9c-2.5,3.5-5.7,6.5-9.8,8.8
	c-4.1,2.3-9.3,4.1-15.7,5.2c-5.6,1-10.6,1.1-14.9,0.4c-5.3-0.9-9.7-2.8-13.4-5.6c-2.8-2.1-5.2-5.2-7.2-9.2c-1.5-3-2.8-7.2-3.7-12.6
	l-4.8-27.3L1156.6,554.1z M1147.6,570.6l-45.1,8l1.9,10.8c0.7,4,1.4,6.9,2.2,8.6c1,2.2,2.3,4,3.9,5.3c1.6,1.3,4,2.2,7.2,2.6
	c3.2,0.4,7.5,0.2,12.7-0.7c5.3-0.9,9.2-2.1,11.9-3.6c2.7-1.5,4.6-3.2,5.9-5.3c1.3-2,1.9-4.5,2-7.3c0.1-2.1-0.4-6.1-1.5-12
	L1147.6,570.6z"/>
<path fill="#C20B19" d="M1134.7,634.9c7-0.5,13,0.1,18,2c3.6,1.4,7,3.4,10,6c3,2.6,5.3,5.6,6.9,8.9c2.2,4.4,3.5,9.5,3.9,15.4
	c0.8,10.7-1.7,19.5-7.5,26.4c-5.8,6.9-14.3,10.8-25.6,11.6c-11.1,0.8-20.1-1.7-26.9-7.6c-6.8-5.9-10.6-14.2-11.4-24.8
	c-0.8-10.8,1.7-19.6,7.4-26.5C1115.3,639.6,1123.7,635.7,1134.7,634.9z M1136.3,649.9c-7.8,0.6-13.6,2.9-17.3,7.1
	c-3.7,4.1-5.4,9.1-4.9,14.9c0.4,5.8,2.8,10.5,7.1,13.9c4.3,3.4,10.4,4.9,18.4,4.3c7.9-0.6,13.7-2.9,17.3-6.8c3.6-3.9,5.2-8.9,4.7-15
	c-0.5-6-2.8-10.8-7-14.2C1150.3,650.7,1144.3,649.3,1136.3,649.9z"/>
<path fill="#C20B19" d="M1106,721.3l69.2,1.3l-0.6,30.9c-0.1,7.8-0.9,13.4-2.2,16.9c-1.3,3.5-3.6,6.3-6.8,8.3c-3.2,2.1-6.9,3.1-11,3
	c-5.2-0.1-9.5-1.8-12.8-5.1c-3.3-3.3-5.4-8.1-6.1-14.5c-1.8,3.1-3.8,5.7-6,7.8c-2.1,2-5.9,4.7-11.4,8.2l-13.7,8.6l0.3-17.6
	l15.3-10.3c5.5-3.7,8.9-6.2,10.3-7.6c1.4-1.4,2.4-2.8,3-4.4c0.5-1.5,0.8-4,0.9-7.4l0.1-3l-28.9-0.5L1106,721.3z M1145.7,736.7
	l-0.2,10.9c-0.1,7.1,0.1,11.5,0.6,13.2c0.5,1.8,1.5,3.2,2.8,4.2c1.4,1,3.1,1.5,5.2,1.6c2.3,0,4.2-0.6,5.7-1.9
	c1.5-1.3,2.4-3.1,2.8-5.5c0.2-1.2,0.3-4.8,0.4-10.7l0.2-11.5L1145.7,736.7z"/>
<path fill-rule="evenodd" clip-rule="evenodd" fill="#C20B19" d="M308.5,898.7c-0.7-4.5-4.5-7.7-8.5-7l-16.9,2.7
	c10.6-45.2-16.1-73-16.1-73s-16.7,34.7,7.3,74.4l-16.9,2.7c-4,0.6-6.7,4.8-5.9,9.3c0.7,4.5,4.5,7.7,8.5,7l16.9-2.7
	c-10.6,45.2,16.1,73,16.1,73s16.7-34.7-7.3-74.4l16.9-2.7C306.6,907.4,309.2,903.2,308.5,898.7z"/>
<path fill-rule="evenodd" clip-rule="evenodd" fill="#C20B19" d="M1094.7,898.7c0.7-4.5,4.5-7.7,8.6-7l16.9,2.7
	c-10.6-45.2,16.1-73,16.1-73s16.7,34.7-7.3,74.4l16.9,2.7c4,0.6,6.7,4.8,6,9.3c-0.7,4.5-4.5,7.7-8.5,7l-16.9-2.7
	c10.6,45.2-16.1,73-16.1,73s-16.7-34.7,7.3-74.4l-16.9-2.7C1096.6,907.4,1093.9,903.2,1094.7,898.7z"/>
<path fill-rule="evenodd" clip-rule="evenodd" fill="#C20B19" d="M792.8,1124c9.8-0.9,17.3-7.4,19.7-17.2
	c-9.2-1.1-19.2,4.3-22.9,12.7c-0.6,1.3-0.9,2.9,0.1,3.9C790.3,1124.1,791.7,1124.1,792.8,1124z"/>
<path fill-rule="evenodd" clip-rule="evenodd" fill="#C20B19" d="M774.8,1119.2c9.8-0.9,17.3-7.4,19.7-17.2
	c-9.2-1.1-19.2,4.3-22.9,12.7c-0.6,1.3-0.9,2.9,0.1,3.9C772.2,1119.2,773.7,1119.3,774.8,1119.2z"/>
<path fill-rule="evenodd" clip-rule="evenodd" fill="#C20B19" d="M763.7,1105.4c9.8-0.9,17.3-7.5,19.7-17.2
	c-9.2-1.1-19.2,4.3-22.9,12.7c-0.6,1.3-0.9,2.9,0.1,3.9C761.1,1105.4,762.6,1105.5,763.7,1105.4z"/>
<path fill-rule="evenodd" clip-rule="evenodd" fill="#C20B19" d="M809.1,1156c9.8-0.9,17.3-7.5,19.7-17.2
	c-9.2-1.1-19.2,4.3-22.9,12.7c-0.6,1.3-0.9,2.9,0.1,3.9C806.6,1156,808.1,1156.1,809.1,1156z"/>
<path fill-rule="evenodd" clip-rule="evenodd" fill="#C20B19" d="M778.2,1175.1c9.8-0.9,17.3-7.4,19.7-17.2
	c-9.2-1.1-19.2,4.3-22.9,12.7c-0.6,1.3-0.9,2.9,0.1,3.9C775.6,1175.2,777.1,1175.3,778.2,1175.1z"/>
<path fill-rule="evenodd" clip-rule="evenodd" fill="#C20B19" d="M746.9,1198.5c9.8-0.9,17.3-7.4,19.7-17.2
	c-9.2-1.1-19.2,4.3-22.9,12.7c-0.6,1.3-0.9,2.9,0.1,3.9C744.3,1198.5,745.8,1198.6,746.9,1198.5z"/>
<path fill-rule="evenodd" clip-rule="evenodd" fill="#C20B19" d="M678.5,1192.2c9.8-0.9,17.3-7.4,19.7-17.2
	c-9.2-1.1-19.2,4.3-22.9,12.7c-0.6,1.3-0.9,2.9,0.1,3.9C676,1192.2,677.5,1192.3,678.5,1192.2z"/>
<path fill-rule="evenodd" clip-rule="evenodd" fill="#C20B19" d="M698.4,1196.8c9.8-0.9,17.3-7.5,19.7-17.2
	c-9.2-1.1-19.2,4.3-22.9,12.7c-0.6,1.3-0.9,2.9,0.1,3.9C695.9,1196.8,697.3,1196.9,698.4,1196.8z"/>
<path fill-rule="evenodd" clip-rule="evenodd" fill="#C20B19" d="M722.1,1198.5c9.8-0.9,17.3-7.4,19.7-17.2
	c-9.2-1.1-19.2,4.3-22.9,12.7c-0.6,1.3-0.9,2.9,0.1,3.9C719.5,1198.5,721,1198.6,722.1,1198.5z"/>
<path fill-rule="evenodd" clip-rule="evenodd" fill="#C20B19" d="M770.6,1198.5c9.8-0.9,17.3-7.4,19.7-17.2
	c-9.2-1.1-19.2,4.3-22.9,12.7c-0.6,1.3-0.9,2.9,0.1,3.9C768.1,1198.5,769.6,1198.6,770.6,1198.5z"/>
<path fill-rule="evenodd" clip-rule="evenodd" fill="#C20B19" d="M798.5,1183.6c9.8-0.9,17.3-7.5,19.7-17.2
	c-9.2-1.1-19.2,4.3-22.9,12.7c-0.6,1.3-0.9,2.9,0.1,3.9C796,1183.6,797.5,1183.7,798.5,1183.6z"/>
<path fill-rule="evenodd" clip-rule="evenodd" fill="#C20B19" d="M809.1,1133.5c9.8-0.9,17.3-7.4,19.7-17.1
	c-9.2-1.1-19.2,4.3-22.9,12.7c-0.6,1.3-0.9,2.9,0.1,3.9C806.6,1133.5,808.1,1133.6,809.1,1133.5z"/>
<path fill-rule="evenodd" clip-rule="evenodd" fill="#C20B19" d="M732.6,1172.3c9.8-0.9,17.3-7.5,19.7-17.2
	c-9.2-1.1-19.2,4.3-22.9,12.7c-0.6,1.3-0.9,2.9,0.1,3.9C730.1,1172.4,731.6,1172.5,732.6,1172.3z"/>
<path fill-rule="evenodd" clip-rule="evenodd" fill="#C20B19" d="M833.4,1133.5c9.8-0.9,17.3-7.4,19.7-17.1
	c-9.2-1.1-19.2,4.3-22.9,12.7c-0.6,1.3-0.9,2.9,0.1,3.9C830.9,1133.5,832.3,1133.6,833.4,1133.5z"/>
<path fill-rule="evenodd" clip-rule="evenodd" fill="#C20B19" d="M839.7,1112c9.8-0.9,17.3-7.5,19.7-17.2
	c-9.2-1.1-19.2,4.3-22.9,12.7c-0.6,1.3-0.9,2.9,0.1,3.9C837.1,1112,838.6,1112.1,839.7,1112z"/>
<path fill-rule="evenodd" clip-rule="evenodd" fill="#C20B19" d="M847.8,1088.3c9.8-0.9,17.3-7.5,19.7-17.2
	c-9.2-1.1-19.2,4.3-22.9,12.7c-0.6,1.3-0.9,2.9,0.1,3.9C845.2,1088.3,846.7,1088.4,847.8,1088.3z"/>
<path fill-rule="evenodd" clip-rule="evenodd" fill="#C20B19" d="M862.2,1066.4c8.2-0.7,14.5-6.2,16.5-14.4
	c-7.7-0.9-16.1,3.6-19.2,10.6c-0.5,1.1-0.7,2.4,0.1,3.3C860,1066.4,861.3,1066.5,862.2,1066.4z"/>
<path fill-rule="evenodd" clip-rule="evenodd" fill="#C20B19" d="M862.2,1048.8c8.2-0.7,14.5-6.2,16.5-14.4
	c-7.7-0.9-16.1,3.6-19.2,10.6c-0.5,1.1-0.7,2.4,0.1,3.3C860,1048.8,861.3,1048.9,862.2,1048.8z"/>
<path fill-rule="evenodd" clip-rule="evenodd" fill="#C20B19" d="M883.1,1043.6c8.2-0.7,14.5-6.2,16.5-14.4
	c-7.7-0.9-16.1,3.6-19.2,10.6c-0.5,1.1-0.7,2.4,0.1,3.3C880.9,1043.7,882.2,1043.7,883.1,1043.6z"/>
<path fill-rule="evenodd" clip-rule="evenodd" fill="#C20B19" d="M829.3,1162.3c8.2-0.7,14.5-6.2,16.5-14.4
	c-7.7-0.9-16.1,3.6-19.2,10.6c-0.5,1.1-0.7,2.4,0.1,3.3C827.1,1162.3,828.4,1162.4,829.3,1162.3z"/>
<path fill-rule="evenodd" clip-rule="evenodd" fill="#C20B19" d="M879,1028.4c8.2-0.7,14.5-6.2,16.5-14.4
	c-7.7-0.9-16.1,3.6-19.2,10.6c-0.5,1.1-0.7,2.4,0.1,3.3C876.9,1028.4,878.1,1028.5,879,1028.4z"/>
<path fill-rule="evenodd" clip-rule="evenodd" fill="#C20B19" d="M869.2,1090.8c8.2-0.7,14.5-6.2,16.5-14.4
	c-7.7-0.9-16.1,3.6-19.2,10.6c-0.5,1.1-0.7,2.4,0.1,3.3C867.1,1090.8,868.3,1090.9,869.2,1090.8z"/>
<path fill-rule="evenodd" clip-rule="evenodd" fill="#C20B19" d="M852.4,1040c8.2-0.7,14.5-6.2,16.5-14.4
	c-7.7-0.9-16.1,3.6-19.2,10.6c-0.5,1.1-0.7,2.4,0.1,3.3C850.2,1040,851.5,1040,852.4,1040z"/>
<path fill-rule="evenodd" clip-rule="evenodd" fill="#C20B19" d="M824.3,1034.1c8.2-0.7,14.5-6.2,16.5-14.4
	c-7.7-0.9-16.1,3.6-19.2,10.6c-0.5,1.1-0.7,2.4,0.1,3.3C822.2,1034.2,823.4,1034.2,824.3,1034.1z"/>
<path fill-rule="evenodd" clip-rule="evenodd" fill="#C20B19" d="M872,1009.6c8.2-0.7,14.5-6.2,16.5-14.4
	c-7.7-0.9-16.1,3.6-19.2,10.6c-0.5,1.1-0.7,2.4,0.1,3.3C869.9,1009.6,871.1,1009.7,872,1009.6z"/>
<path fill-rule="evenodd" clip-rule="evenodd" fill="#C20B19" d="M865.8,703.9c0,0-1,10.5,7.5,9.6c8.5-0.9,12.2-4,12.8-4.1
	c0.6-0.1-19.2-7.7-19.2-7.7L865.8,703.9z"/>
<path fill-rule="evenodd" clip-rule="evenodd" fill="#C20B19" d="M759.4,882.4c0,0-7.7,7.5-36.2,25.1c-28.6,17.7,4,7,4,7
	S756.3,887.8,759.4,882.4z"/>
<path fill-rule="evenodd" clip-rule="evenodd" fill="#C20B19" d="M772.2,1208.8c0,0,20.2-3.6,35.4-14.4c15.2-10.8-3-4.1-3-4.1
	s-17.5,11.8-24.8,12.3C772.5,1203,772.2,1208.8,772.2,1208.8z"/>
<path fill-rule="evenodd" clip-rule="evenodd" fill="#C20B19" d="M904.4,749.7c0.9-3.7-0.9-6.9-2.5-9.9c-1.5-2.7-0.2-4.3,1.5-5.2
	c1.7-1,3.8-0.1,4.8,2.1c4.5,10.2,6.2,23.8-2.4,34.1c-1.4,1.8-1.7,3.8-2.9,5.5c-7,10.5-17.4,14.3-28.7,17.2c-3.4,0.9-4.1-1.7-4.6-3.2
	c-0.8-2.2,2.1-2.5,3.4-2.7c2.4-0.4,4.8-1,6.8-2.4C896.7,778.6,905.2,766.7,904.4,749.7z"/>
<g>
	<path fill-rule="evenodd" clip-rule="evenodd" fill="#C20B19" d="M505.8,589.1C505.8,589.1,505.8,589.1,505.8,589.1
		C505.8,589.1,505.9,589.1,505.8,589.1C505.9,589.1,505.9,589,505.8,589.1C505.9,589,505.9,589,505.8,589.1z"/>
	<polygon fill-rule="evenodd" clip-rule="evenodd" fill="#C20B19" points="505.6,589.3 505.6,589.3 505.6,589.3 	"/>
	<path fill-rule="evenodd" clip-rule="evenodd" fill="#C20B19" d="M948.3,746c-4-15.5-11.3-28.8-24.1-39c-13-10.4-26.6-16.3-43-8.7
		c-3.2,1.5-3.7,0.2-3.7-2.6c0-7.1,0.4-14.2,0-21.2c-1-16.5,2.7-31.1,11.2-45.8c10.8-18.6,21.2-37.6,31.3-56.7
		c5.4-10.1,6.3-21.6,9.4-32.3c4.2-14.5,3.3-28.5-3.5-42.1c-3.4-6.8-4.9-15.3-10-20.3c-6.2-6.1-6.5-12.5-6.6-19.8
		c-0.3-19.3-4.9-37.5-12.7-55.1c-6.4-14.5-17.4-25.5-27.2-37.4c-5.4-6.4-13-10-19.2-15.2c-10.1-8.5-20.5-16.9-33-21.5
		c-7.8-2.9-14.7-6.9-20.3-12.8c-4.9-5.1-10.5-8.6-16.7-11.6c-4.6-2.2-10.1-3-14.2-5.4c-7.6-4.6-15.9-6.6-23.9-9.7
		c-12.7-4.9-26.5-5.2-40.1-5c-16,0.2-29.3,6.1-40.4,17.1c-8.6,8.4-16.6,17.3-24,26.9c-9.7,12.5-15.7,26.8-22.5,40.7
		c-5.7,11.6-10.2,23.9-15.1,36c-4.9,12.2-9.9,24.5-17.4,35.4c-14.2,20.5-29.6,40.3-43.1,61.2c-7.9,12.2-13.3,26-19.6,39.2
		c-0.8,1.7-1,3.5-2.9,4.6c-11.1,6-20.2,14.4-28.6,23.6c-13.2,14.4-20.6,31.4-21.7,51c-0.9,15.8,4.3,29.7,14.5,41.4
		c4.5,5.1,11.3,9.7,18,8.2c6.9-1.6,6.3,1.2,6.5,5.6c0.3,7.8-1,15.6,1.1,23.3c1.2,4.5,5.3,7.3,6.1,12.2c1.5,9.1-0.8,18.2-0.3,27.2
		c0.3,6.4,0.4,12.8-0.5,19.3c-1.5,10.5-4.2,20.9-4,31.5c0.1,8.1-2.2,15.7-3.1,23.5c-1,8.2-4.7,16.6,2.2,24.2
		c4.8,5.2,15.7,9.4,20.7,3.8c2.5-2.8,6-3.5,8-2c1.9,1.3,0.8,4.8-0.6,7.5c-4.1,7.9-2,12,6.2,16.1c4,2,9.6,3.2,7.9,10.5
		c-1.9,8.1,1.6,12,9.7,12.8c10.7,0.8,16.4,10.1,12.7,20c-2,5.1-1.8,10.3-0.5,15.5c2,7.8,8.6,11.3,14.4,16
		c14.6,11.6,31.3,12.2,48.6,10.3c12.7-1.4,25.3-3.4,37.9-5.1c2.5-0.4,2.2,1.5,2.2,3.1c0.2,7.2-1.1,14.4-1.6,21.6
		c-0.2,3.4-0.3,7.2-1.4,10.8c-4,14.5-8,29.1-11.9,43.5c-5.1,18.8-15.2,34-28,47.7c-8.3,9-16.9,17.8-25.7,26.3
		c-9.6,9.5-18.4,19.9-22.5,33.2c-2.7,5.2-3.8,10.6-3.4,16.5c0.2,3.2,0.4,6.5-1,9.6c1.2,0.4,1.5,2.3,2.6,2.7c0.2,0,0.3,0.1,0.5,0.1
		c0.3,0,0.7-0.2,1.2-0.5c3.5-5.6,3.5-11.8,3.9-18.2c0.5-8.6,4.9-16.1,9.8-22.9c10.4-14.6,23.8-26.5,36.6-39
		c6.5-6.3,10.1-14.5,15.7-21.4c2.4-2.9,5.4-4.7,7.5-7.9c0.4-0.6,0.7-1.1,1.1-1.7c8.3-15,13.5-31.2,18.7-47.4
		c5.5-17.1,6.3-35,7.5-52.8c0.3-5.2,2.1-8.3,7.3-9.9c13.3-4.1,24.4-12.1,35.7-20c1.6-1.1,3.3-2.3,3.6-4.4c0-2.5-1.4-3.6-3.6-4
		c-2.5,0.2-4.3,1.7-6.4,2.8c-20.1,11-40.5,20.9-63.6,23.7c-18.3,2.3-36.3,3.4-54.3-1.8c-10.4-3.1-17.9-9-19.5-20.4
		c-0.6-4.1-1.5-8.1-1.5-12.2c0-12.2-6.2-19.9-16.9-24.6c-2.2-1-4.8-1.7-4.4-4.8c0.5-3.5,3.7-3,6.1-3.1c5.1-0.2,10.2,0.1,15.4-0.1
		c3.4-0.2,6.2-1.5,6.8-5.3c0.7-4.4-8.7-11.9-12.4-9.5c-4.2,2.6-7.8,2.6-12.1,1.2c-2.7-0.8-5.5-0.1-8.1,0.8c-2.2,0.7-4.2,0.7-6.2-0.6
		c-6.5-4.2-2.9-10.1-2.7-15.5c0.2-4.1,2.9-3.9,5.6-4.6c6.5-1.7,11.5-7.8,12.1-14.4c0.5-6.3-4.4-15.4-9.6-17.8
		c-2.4-1.1-5.3-1.9-7.1,0.5c-1.7,2.1,0.5,4,1.7,5.7c0.6,0.8,1.2,1.5,1.8,2.3c2.8,4.5,1.9,7.8-3,9.2c-7.4,2.1-14.4,4.6-21.4,7.8
		c-8.6,4-14.8-1.9-13-11.1c2.5-12.7,6-25.3,7-38.2c1.1-13.9,1.6-28,4.2-41.6c2.8-14,0.4-26.9-5.8-39.4c-2.2-4.4-4.3-8.9-4.2-13.9
		c0.4-20.5-2-40.9-1.3-61.3c0.1-2.5,0.3-5.2-1.2-7.4c-0.1,0-0.1,0-0.2-0.1c-0.1,0.1-0.2,0.2-0.3,0.4c-6.3-0.2-6.2,0.5-7.2,8.5
		c-1.5,12.3-0.6,24.6-1.2,37.8c-12-5.1-18.3-14.3-22.3-25.7c-3-8.5-3.1-17.3-2.2-26c1.2-11.2,5.5-21.5,13-30.2
		c4.7-5.5,9.6-10.8,16.1-14.2c0.9-0.5,1.8-0.8,2.7-0.5c1.1-0.7,2.2-1.2,3.3-1.8c0.2-0.1,0.4-0.3,0.6-0.4c0.6-0.2,1.2-0.3,1.7-0.4
		c3.7-1.2,7.5-2.4,11.2-3.7c3.9-1.4,8.2-2.3,12.2-1.7c10.7,1.5,20.7,1,29.9-5.6c2.5-1.8,4.2-0.8,4.7,2.5c0.6,3.7,0.4,7.5,1.7,11
		c9.1,24.8,24.5,44.1,48.7,55.9c18.8,9.2,38.3,12.6,58.9,8.1c5.1-1.1,8.1,0.4,10.3,4.3c3.4,5.9,5.6,11.9,2.1,18.9
		c-4.6,9.2-9.2,18.5-5.2,29.3c0.6,1.7,0.1,3.7-1.8,4.6c-2.1,1-4,0.3-5.4-1.2c-4.3-4.5-9.4-8.4-12.8-13.8c-2.2-3.3-5-5.9-8.3-8.2
		c-6.5-4.7-13.7-7.7-21.4-9.6c-10.3-2.6-20.2-5.7-28.6-13c-5.4-4.7-11-9.8-18.1-11.9c-15-4.5-30.3-8.4-44.9-14.2
		c-1.6-0.6-3.4-1.6-4.9,0.2c-1.3,1.5-0.8,3.5,0,5c2.4,4.6,5.8,8.5,10.6,10.7c8.7,3.8,17.4,7.3,27,8.1c6,0.5,11.8,2.2,17,7
		c-15.5-1.1-30-2.7-43.3-10.1c-13.7-7.7-22.1-19.1-27-33.6c-1.2-3.6,0.5-4.2,3.5-3.7c2.5,0.5,4.8,1.8,7.1,2.7
		c6.2,2.4,8.2,1.5,10.4-4.9c1.2,3,2.3,6.2,4.1,9.1c1,1.7,2.2,3.6,4.4,3.3c2.2-0.3,2.8-2.5,3.6-4.3c0.4-0.9,0.5-1.9,0.7-2.8
		c2.7-14.5-10.4-31-22.7-31.6c-4.7-0.3-9.3-2.1-14.1-1.2c-2.3,0.5-3.6-0.8-4.8-2.6c-1.2-1.9-2.7-3.1-4.7-3c-0.7,0.2-1.5,0.5-2.2,0.7
		c0,0-0.1,0-0.1,0.1c-1,0.7-2,1.1-2.9,2c0.2,0.1,0.4,0.3,0.6,0.4c0.6,7.7-5.7,10.4-10.4,13.9c-4.5,3.3-7.5,7.5-9.2,12.5
		c-0.7,2.1-2.6,5.4,1.7,6.5c3.5-2.3,6.3-5.7,10.6-6.9c0,0,0,0,0,0c0-0.1,0.1-0.1,0.1-0.2c0,0,0.1,0,0.1,0c0,0,0.1-0.1,0.1-0.1
		c0.5-2.7,1.9-4.3,4.8-4.5c0.3,0,0.7,0.7,1,1.1c-1.8,1.4-3,3.7-5.8,3.5c0,0,0,0.1,0,0.1c-0.1,0-0.2,0.1-0.3,0.1c-2,3.3-5,5.8-8,8.2
		c-5.9,6.6-9.1,14.5-11.5,22.9c-0.6,2.1-0.8,4.3,0.1,6.3c0.6,1.2,0.8,2.9,3,2.8c2.4,0,1.9-1.6,2.5-2.9c4.2-8.5,8.3-17,14.2-24.4
		c1.1-1.3,2.6-2.7,4.5-3.7c5.7-3,8.4-1.8,10.9,4.2c3.6,8.4,8.4,16.2,12.7,24.3c3.6,5,8.9,8.6,11.8,14.1c0,0,0,0,0,0
		c2,1.6,4,3.2,5.9,4.7c-0.6,0.1-1.2,0.1-1.8,0.1c0.8,0.5,1.6,1.1,2.4,1.6c10,6.2,20.7,10.2,32.3,12.2c9,1.5,18.1,0.6,27.1,0.8
		c8.9,0.2,16,3.3,20.6,11.2c3,5.1,6.7,9.7,10.2,14.4c1.9,2.5,3.9,4.3,7,5c5.1,1.2,8.8,4.2,11.1,8.9c5.7,11.9,12.7,23,19.3,34.4
		c8.1,14,17.6,26.8,30.8,36.7c11.6,8.7,24.9,12.2,38.3,16c2.9,0.8,5.5,1.4,7,4.7c1.3,3.2,4,3.5,5.6,0.3c2.3-5,6.6-4,10.6-4.1
		c1.3,0,3-0.1,3.6,1.4c0.6,1.4-0.5,2.7-1.3,3.7c-4.7,5.3-9.9,9.3-17.6,9.5c-6.3,0.2-8.6,3.2-8.5,9.5c0.2,5.6,2.5,7.5,8.9,7.6
		c2,0.1,3.9,0,5.8-0.8c11.9-5.2,19.8-13.3,20.4-27c0.1-2.9,1.5-4.9,4.7-4.9c3.3,0.1,5.7,1.3,6.2,5c1.5,11,7.5,19.4,15.7,26.1
		c18.9,15.4,40.5,22.7,65.1,20.3c14.7-1.4,26.4-8.5,36.8-18.9c8.8-8.7,13-19.4,17.4-30.3c0.4-1.5,0.8-3,1-4.5
		c0.5-2.8,1.4-6.3-2.4-7.5c-3.6-1.1-5.3,1.6-6.4,4.5c-0.8,2-0.6,4.1-1.4,6.1c-0.2,0.5-0.4,1.1-0.6,1.6
		c-6.3,13.9-16.7,23.7-30.5,29.9c-6.6,1.7-12.8,4.7-19.9,4.3c-6.8,0.8-13.2-0.8-19.7-2.7c-13.8-4-26.1-10.6-36.1-21.3
		c-2-2.1-3.5-4.2-1-7.1c2-2.2,0.6-4.4-0.8-6.4c-4.8-6-10.8-10-18.3-12.1c-11.9-3.3-24-3.7-36.2-3.5c-15.7,0.3-30.1-4.3-42.7-13.1
		c-18.1-12.7-29.7-30.5-37.4-51c-0.8-2.1-2.3-4.7,0.6-6.2c2.6-1.3,5,0.2,6.9,2c1,1,1.4,2.3,2,3.6c10.1,22.8,28.8,34.5,52.1,40.2
		c2.4,0.6,4.7,0.3,6.9-0.6c4.5-2,5.4-5.6,2.2-9.4c-2.8-3.4-6.5-5.5-10.8-6.8c-8.1-2.3-16.2-4.3-24-7.9c-8.6-4-12.9-11.1-16.6-19
		c-1.1-2.2,0-3.1,2-3.8c3.5-1.1,6,0.7,8.7,2.4c9.8,6,20,8.9,29.9,0.2c2.3-2,6.1-3.7,4.7-7.3c-1.4-3.5-5.1-1.6-7.9-1.4
		c-14.3,1.5-26.5-8.8-27-23.3c-0.6-15.8,7.8-26.1,21.3-32.9c5.6-2.8,5.9-4.1,3.3-9.6c-2.9-6-6.3-11.8-8.6-18.1
		c-1.1-2.9-1.1-5.3,1.2-7.6c4-3.9,6.8-8.6,9.5-13.4c2.6-4.7,7.1-6.2,12-5.6c9.4,1,13.3,10.3,7.8,18.1c-0.5,0.8-1.5,1.6-0.7,2.6
		c3.4,4.5-0.3,6.2-3.1,8.2c-7.2,5.2-10.3,12.7-11.5,21.1c-0.5,3.7,0.6,6.9,3.7,9.4c1.8,1.4,5.3,1,5.6,3.7c0.3,2.4-2,4.5-3.1,6.8
		c-0.9,2-2.3,3.7-3.2,5.7c-8.9,20.8,0.7,38,19.4,43.6c5.6,1.7,7.6,3.5,6.9,8.9c-0.2,1.3,0,2.7,0,4.1c-1,21.1,18.6,41.8,34.5,48.2
		c18.2,7.3,36.6,5.7,54.5-2c2.6-2,5.5-3.9,8-5.9c6.5-5.5,11.7-12,14.5-20.2c0.8-2.1,1.2-4.4-1.3-5.7c-2.4-1.3-4.1,0.5-5.5,2.2
		c-1.9,2.4-4,4.8-6.4,6.8c-7.3,5.3-15.1,10.1-24.2,11.5c-22.9,3.4-42.7-2.3-57.1-21.2c-6.4-8.5-9.4-18.5-4.8-29.3
		c1-2.5,2.3-5,2.4-7.9c0.2-5.3-2.7-7.3-7.2-4.6c-3.4,2-6.1,1.6-9.2-0.5c-3.7-2.5-6.8-5.2-9.4-8.8c-5.6-7.9-3.9-19.6,3.9-26.6
		c6.2-5.6,16.5-4.7,23.6,1.7c6.6,5.9,8.6,13.3,8.2,21.8c-0.2,2.4-0.5,4.9,2.1,6.1c2.9,1.3,4.9-0.3,6.7-2.3c1.6-1.7,3.3-3.4,4.9-5.1
		c11.2-12,24.6-14.6,39.8-9c4.6,1.7,9.3,3.6,14.1,4c7.8,0.6,8.9,2.7,7.8,11c-1.1,8.6-0.8,17.2-1.5,25.8c1,3.3,0.1,7.5,4.5,9.2
		c2.2,0.6,4.5,0.4,6.8,0.4c1.4-0.1,2.8-0.3,4-0.9c14.2-6.5,34,0.3,43.2,12.8c8.6,11.4,12.8,24.4,15.8,38.2
		c2.5,11.5,2.1,22.1-3.6,32.5c-1.2,2.2-3,5-1.7,7.2c3.8,6.4-0.4,10.6-3.6,14.7c-12.5,16-28.6,26.5-48,32.4
		c-15.3,4.7-30.5,3.2-45.2-1.2c-11.3-3.4-21.3-9.8-28.6-19.7c-3.2-4.3-6.2-8.6-8.7-13.3c-0.8-1.5-1.7-3.4-3.9-3
		c-1.9,0.4-2,2.2-2.4,3.7c-1.5,5.3-1.5,10.5,0.7,15.6c3.9,9,9.8,16.5,18,22c3.1,1.9,5.9,4,9,5.6c2.2,1,4.1,2.7,4.6,5.1
		c1.8,8.8,5.8,17.1,8,25.9c4.7,19.2,11.8,37.3,22.5,54.1c4.3,6.8,9.6,12.9,14.7,19.1c2.4,3.1,1.7,4.3-1.8,4.9
		c-5.8,1.2-11.7,1.5-17.5,2.7c-30.3,6-59.4,16.3-87.1,29.9c-22.2,10.8-42.5,24.5-61.8,39.8c-9.7,7.7-19.7,15-28.7,23.5
		c-2.6,5.4-6.8,9.7-10.9,13.4c-5.9,5.4-12.1,10.7-17,16.9c-4.3,5.4-9.8,9.3-15.3,12.8c-6.4,4.1-13.6,7.1-20.8,9.5
		c-7.9,2.6-12.8,7.8-15.3,15c-3.7,10.6-8.2,20.7-14.5,29.8c-1.9,2.8-1.3,4.2,0.8,6.5c6.5,7.3,15.4,11.4,22.9,17.2
		c1.9-0.1,3.2,1.1,4.7,2c12.1,6.7,24.8,11.6,38.1,15.3c19.8,5.6,40,8.7,60.6,8.8c16.5,0,33.3,0.7,49.7-1.3c9.3-1.1,18.6-2.5,27.4-6
		c2.7-2.7,0.6-3.1-1.1-3.7c0,0-0.1,0.1-0.1,0.1c-6.7,3.2-50.3,4.8-64.9,4.8c-13.2,0-26.4-1.1-39.4-3.5c-14.6-2.8-28.9-6.7-42.9-11.7
		c-7.4-2.7-9.6-6-8.5-14c0.2-0.7-0.1-1.5-0.2-2.3c-0.7,0.1-1.5-0.1-1.8,0.2c-10.3,10.7-11.8,6.3-22,0c-3.8-2.3-6.4-5.6-9.4-8.6
		c-3.7-3.7-3.3-8.2,0-11.6c4.2-4.4,6.2-9.8,7.4-15.2c2.3-10,8.7-16.3,17.8-18.9c19.1-5.4,32.9-18,46-31.7c8.1-8.6,16.1-17.3,25-25
		c12.2-10.4,24.5-20.8,37.7-30.3c7.7-5.4,15.8-10.3,23.4-15.9c8.8-6.6,18.8-10.7,28.6-15.2c22.9-10.5,47.1-17.3,71.3-23.4
		c9.1-2.3,18.9-2.1,28.4-2.6c4.7-0.3,6.7,4,4.5,8.2c-1.6,3.1-4.7,6.6,2.6,7.3c4.8,0.5,3.9,6.2,4.9,9.6c0.9,3.3,0.3,7.1,0.1,10.5
		c0,0.9-0.2,1.7-0.5,2.4c0.1,0.4,0.1,0.5,0,0.1c0,0,0,0,0,0c0.4,1.3,0.2,2.6-0.5,3.7c0,0.2,0,0.5,0,0.7c0.1,2.1,0.1,4.1-0.3,6.1
		c-0.2,1-0.5,2-1,2.8c-0.1,13.9-1.7,26.9-8.4,38.6c0,0.1,0,0.3,0.1,0.4c0.5,6.5-2.8,13-5.7,18.9c0.3,0.9,0.3,1.9-0.3,2.7
		c-8.2,12-13.2,26-22.2,37.5c-0.3-0.1-0.4-0.3-0.6-0.5c-0.2,0.4-0.5,0.8-0.6,1.3c-0.1,0.1-0.1,0.3-0.2,0.4c0.4,0,0.8,0,1.3,0.1
		c-2.7,7.7-7.7,14.1-11.4,21.1c0,0.8-0.2,1.6-0.6,2.4c-1.5,2.9-3.7,5.1-6.2,7.2c-1.3,1.8-2.6,3.6-4,5.4c0.1,0,0.2,0.1,0.4,0.1
		c-9.4,11.4-20.2,20.8-31.2,30c0,0-0.1,0-0.1,0c-0.2,0.2-0.4,0.4-0.5,0.6c0.4,1.9,1.4,2.6,3.2,1.5c1.6,0,2.8-0.3,4.3-1.3
		c9.4-6.3,17.6-14,25.5-22.2c17.4-18,30.6-38.8,42.2-60.8c8.4-15.9,15.1-32.5,20.6-49.6c1.8-5.7,2.8-11.6,4.6-17.3
		c4.6-15.3,6.5-30.9,4.1-46.8c-1.3-9.3-3.6-18.4-9.1-25.8c-7.9-10.9-16.9-21-25.9-30.9c-3.9-4.3-7.3-8.9-10-13.9
		c-6.9-13.1-13.6-26.4-17.2-40.9c-1.8-7.2-3.5-14.3-5.3-21.6c2.5,0.8,4.2,1.5,6,1.9c10.5,2.1,20.8,1.5,31.3,0.1
		c14.5-1.9,28.2-6.8,39.6-15.5c19.2-14.7,32.2-33.6,35.6-58.6C952,776.6,952.3,761.4,948.3,746z M711.5,637.3
		c-4.7-5.2-4.8-12.7-9.3-18.1c-0.8-1-0.1-5.2,3.2-6.4c2.5-0.9,4.5-1,5.7,2.1c1.1,2.7,2.4,5.3,3.6,7.9
		C718.9,630.9,718.9,630.9,711.5,637.3z M753,574c-9.7-2.4-15.6-8.5-21.2-16.3c-9.3-12.9-11.9-28.1-17.3-42.4
		c-6.2-16-11.1-32.8-23.7-45.4c-3.3-3.3-7.8-5.5-12-7.8c-1.9-1-3.9,0.5-5,2c-1.2,1.6-0.9,3.5,0.5,5.3c4.5,5.8,8.9,11.6,13,17.6
		c6.9,10.2,13.4,20.5,17.2,32.4c2.7,8.4,5.9,16.5,7.9,25.1c3.2,12.5-2,21.9-9.6,30.5c-4.4,4.9-9.9,8.5-16.3,11.1
		c-9.9,4-19.3,3.6-29.4,1c-12.6-3.3-23.1-9.4-31.5-19c-8.9-10.1-11.7-22.1-9.8-35.3c0.5-3.6,1-7.2,2-10.7c2.1-8.4,4.4-17,13.8-20.5
		c3.2-1.2,6.7-1.8,10.1-2c6.4-0.4,12.1,4.9,12.6,11.3c0.2,2.8-1.5,4.4-3.8,5c-4.6,1.3-4.7,4.9-4.3,8.4c0.4,3.5,3.8,3.1,6.3,3.4
		c11,1.9,16.8-8.2,18.3-17c0.3-1.7,0.1-3.6,0.1-5.3c0.8-2,0.8-4.1,0-6.1c-1.3-8.1-6.8-13.5-13.5-16.1c-10-3.9-20.7-6.6-31.4-1.4
		c-10.5,8-16.2,19.3-21.3,31c-0.7,1.6-1.1,3.1-2.4,4.4c-1.3,3-0.6,6.5-2.6,9.4c-0.2,6.5-1.2,12.9-0.1,19.6
		c2.3,14.6,9.8,25.8,20.4,35.2c9.6,8.6,21,14.5,33.6,18c15.6,4.3,30.7,4.5,45-4.4c9.8-6.1,18.1-13.9,24.9-23.1
		c0.9-1.2,1.3-2.9,3.3-2.6c-1.4,4.2,6.7,2.1,4.5,7.4c-6.1,14.5-16.4,23.8-30.6,30.4c-12.3,5.6-24.7,8.6-38,8
		c-13.8-0.7-25.6-6.6-37.3-13.5c-8.1-4.8-14.4-11.1-20.5-17.6c-11.8-12.6-17.1-27.9-16.6-45.2c0.1-3.5,0.9-7.6,2.8-10.4
		c2.4-3.6,1.5-7,1.6-11c-6.1,1.4-7,7.2-9.8,10.9c-6.5,8.7-14.8,12.5-25.2,12.5c-8.3,0-16.5,0-24.8,0c-3.3,0-4.5-0.1-2.7-4.3
		c2.2-5.1,5.5-9.7,7.1-15c0.6-2.1,2-3.3,3.6-4.4c-0.1-4.8,4.1-7,6.3-10.4c3.6-5.8,8.4-10.8,12.9-16c5.1-5.8,7.3-13.8,12.5-19.1
		c7.4-7.6,12.5-16.6,17.5-25.6c11.8-21.4,23.3-42.9,34-64.8c5.4-10.9,10.4-22,16.1-32.7c5.3-10,11.4-19.6,18.2-28.8
		c3.8-5,7-10.4,12.5-13.8c10.1-6.4,21.5-7.6,33-8.2c13.9-0.6,27.3,1.8,40.8,5.4c10.7,2.8,20.7,6.7,30.2,12
		c6.9,3.8,11.1,10.6,17.4,15.3c6.5,5,13.1,9.3,21.2,11c7.2,1.5,12.8,6.1,18.3,10.6c12.6,10.7,25.8,20.8,37.1,32.7
		c13.1,13.8,25.5,28.8,30.9,47.9c1.2,4.5,2.3,8.9,2.2,13.6c0,2.8,1.3,6.4-3.9,6.3c-2,0-1.7,2.7-1.9,4.4c-1,10,4.8,17.6,9.5,25.5
		c4.4,7.4,10.5,13.6,14.1,21.7c3.1,7.1,4.6,14.3,3.7,22.1c-0.6,5.2,1.3,11.2-0.5,15.8c-4,9.6-5,20.8-12.4,28.8
		c-4,4.3-6.6,8.8-8,14.6c-1.2,4.6-6.5,5.6-10.5,7.3c-12.2,4.9-24.9,3.5-37.5,3.6c-10,0.1-9.9,0-7.2-9.4c0.8-2.6,0.5-5.4,0.8-8.1
		c0.8-2.4,0.8-4.9,0-7.3c-1.1-3.7,1.4-7.7-1.9-11.5c-0.8-1,2.1-5.3,3.3-8c1.2-2.8,1.8-3.7-2.5-3.1c-9.9,1.4-19.8,0.1-29.5-2.5
		c-17.2-4.7-23.7-1.6-33.7,11.9c-2.5,3.4-5.5,6.4-8.6,10c-3.5-10.1-6-19.9-9.7-29.3c-4.2-10.2-10.1-19.2-16.6-27.9
		c-8.4-11.4-14.8-23.6-15.5-38.2c-0.2-2.9-0.9-5.7-1.4-8.6c-0.7-0.9-1.2-1.9-1.3-3c-0.4-12.1,0.1-24.2-0.4-36.3
		c-0.4-1.5-0.6-3-0.8-4.5c0.5,11.9,1.2,23.9,0.8,35.9c-0.2,7-2.3,13.9-0.6,21c1.6,11.7,4.9,22.7,11,32.9
		c9.2,15.4,20.4,29.7,26.2,47.2c2.1,6.4,2,13.2,4.1,19.6c0.6,1.9-1.1,4.4-2.7,2.6C764.2,574.2,758.3,575.3,753,574z M873.8,647.5
		c-2.2,4.8-5.5,5.8-10.9,5c-9.5-1.4-18.4-5.2-27.8-6.7c-2.5-0.8-4.9-0.8-7.5,0c-6.3-0.4-10.2,4.2-14.6,7.4
		c-4.7,3.4-10.1,5.3-15.9,8.7c0.6-7.9-1.3-14.1-5.8-19.4c-4.9-5.9-11.7-7.4-18.6-8.2c-5-0.6-10.3,0.1-15.4-0.2
		c-8-0.4-9.8-4.8-6.8-12c2.8-6.7,8.8-9.8,13.8-13.5c7.5-5.6,11.5-13,14.9-20.9c3.4-7.9,2.7-16.9,7-24.8c4.8-8.8,14.6-13.1,23.6-9
		c8.5,3.9,17.3,6.3,26.6,7c2.1,0.1,2.7,0.9,3.4,2.9c3.1,8.7,3.4,17.8,0.5,26.3c-1.9,5.7-6.5,10.7-10.2,15.7
		c-1.8,2.4-2.9,5.4-5.4,7.3c-1.1,0.9-0.8,2.8-0.3,3.9c0.7,1.4,2.4,0.7,3.8,0.6c0.3-0.1,0.6-0.4,0.9-0.6c11.8-9.5,25.9-8.7,39.8-8.6
		c8.2,0.1,16.2-0.7,24.6-2.3c-3.7,8-6.6,15.7-11.1,22.9C879,634.5,876.7,641.2,873.8,647.5z"/>
</g>
</svg>
